<mxfile host="65bd71144e">
    <diagram id="wLmsF46JWjmUXcQwbAUk" name="Page-1">
        <mxGraphModel dx="2335" dy="976" grid="1" gridSize="10" guides="1" tooltips="1" connect="1" arrows="1" fold="1" page="1" pageScale="1" pageWidth="827" pageHeight="1169" math="0" shadow="0">
            <root>
                <mxCell id="0"/>
                <mxCell id="1" parent="0"/>
                <mxCell id="2" value="" style="rounded=0;whiteSpace=wrap;html=1;fontSize=29;fontStyle=1;strokeWidth=2;fillColor=#f5f5f5;fontColor=#333333;strokeColor=none;" parent="1" vertex="1">
                    <mxGeometry x="240" y="60" width="1920" height="1080" as="geometry"/>
                </mxCell>
                <mxCell id="3" value="Arus Listrik" style="rounded=1;whiteSpace=wrap;html=1;fontSize=40;fontStyle=1;strokeWidth=3;fillColor=#6d8764;strokeColor=none;fontColor=#ffffff;" parent="1" vertex="1">
                    <mxGeometry x="926.25" y="100" width="517.5" height="100" as="geometry"/>
                </mxCell>
                <mxCell id="4" value="Dasar Elektronika" style="rounded=1;whiteSpace=wrap;html=1;fontSize=29;fontStyle=1;strokeWidth=3;fillColor=#a0522d;strokeColor=none;fontColor=#ffffff;" parent="1" vertex="1">
                    <mxGeometry x="270" y="90" width="300" height="60" as="geometry"/>
                </mxCell>
                <mxCell id="5" value="" style="rounded=1;whiteSpace=wrap;html=1;strokeWidth=4;arcSize=2;fillColor=#fff2cc;strokeColor=#d6b656;" parent="1" vertex="1">
                    <mxGeometry x="300" y="291" width="740" height="800" as="geometry"/>
                </mxCell>
                <mxCell id="15" value="AC" style="rounded=1;whiteSpace=wrap;html=1;fontSize=30;fontStyle=1;strokeWidth=3;fillColor=#a0522d;strokeColor=none;fontColor=#ffffff;" parent="1" vertex="1">
                    <mxGeometry x="940" y="310" width="70" height="70" as="geometry"/>
                </mxCell>
                <mxCell id="16" value="" style="rounded=1;whiteSpace=wrap;html=1;strokeWidth=4;arcSize=2;fillColor=#e1d5e7;strokeColor=#9673a6;" parent="1" vertex="1">
                    <mxGeometry x="1264" y="291" width="746" height="800" as="geometry"/>
                </mxCell>
                <mxCell id="17" value="DC" style="rounded=1;whiteSpace=wrap;html=1;fontSize=30;fontStyle=1;strokeWidth=3;fillColor=#76608a;strokeColor=none;fontColor=#ffffff;" parent="1" vertex="1">
                    <mxGeometry x="1920" y="310" width="70" height="70" as="geometry"/>
                </mxCell>
                <mxCell id="33" value="Alternating Current" style="rounded=1;whiteSpace=wrap;html=1;fontSize=26;fontColor=#ffffff;fillColor=#a0522d;strokeColor=none;fontStyle=1" parent="1" vertex="1">
                    <mxGeometry x="680" y="392.5" width="220" height="100" as="geometry"/>
                </mxCell>
                <mxCell id="34" value="Direct Current" style="rounded=1;whiteSpace=wrap;html=1;fontSize=26;fontColor=#ffffff;fillColor=#76608a;strokeColor=none;fontStyle=1" parent="1" vertex="1">
                    <mxGeometry x="1650" y="392.5" width="230" height="110" as="geometry"/>
                </mxCell>
                <mxCell id="35" value="" style="shape=image;verticalLabelPosition=bottom;labelBackgroundColor=default;verticalAlign=top;aspect=fixed;imageAspect=0;image=data:image/png,iVBORw0KGgoAAAANSUhEUgAAAWEAAAFOCAYAAABXBaw0AAAWMHpUWHRSYXcgcHJvZmlsZSB0eXBlIGV4aWYAAHjajZppdiQ5cKT/4xRzBOzuOA7W93QDHX8+C7Ja3f2kGTGrkslkZATgMLcFwXD/8z9e+D98tdhrqM28j94jX3XUkScvPP58je85fd/Tz1s9/b5K/3w/1PvzMuV//uLP9zT/+X79vUha/z7R7y+y/+tE+edb0QV4nerPzzZ/T1R49+8n+mvIwy3W//qF35/vZ/85YdH/VibfE8+51Bx57bxOpYWfbzrTb1FM4//9sD6aC9UY6e/vf2MsejH/Oj78foCRlq8g/12dYv7n+38VvPzX+9+J/hT8r6/+nT19V01/e+//Ufzw7+r//4r/Tetvtczz51Xg7X/8YnjKfx/ce8ffu98BddYO1voviv5M/udEHLgYhybRmEr9HoXXP6/a9+iUdANT+328uHiMuFOKL2UeKfBCXyX1tJPxvaaZ2vee83vnp8PjfY+SLOdcc043V46/vHd/hhKqivpzXfuufLmyx8tBlZPVdP93j/C/PfC/e7wntDI9FijY+HqUcWUVmdlo2fXMYSxCOr9rlj9ApH8B5c+XBaYzvqJ6VPf8fry89Gep27eqhePyd6QK8U9869M9cG1jGFlVpsalU/HoqaqmTmuU3HJqPVv2DMekRY1fzKUUK5ODSvOy8knh/ZmCf4Mu/+Pg/4xCEMk/n8k9pd9ps/wabP3ThP/6kCpWKN6HisgoGR840Y8GLlj9d0QrO5YfGvn5QFJtYryFWURX6f2d6nlyyZpyvayRj3THbaNYOm+Bu1bz6rOm0KCYvJ6PzW93Blt+J0e0PfJIbz/wO84sa1hthfMBz7J6G+ON0cea52yumcPkDe8ve2/tjFHTGeWtanmW2/YsvHVqvZkLpjKs1P3O2DDYfbmfOc6YdN894c5eqDPTbixsXm3amsz/pfHmY3LFr+dV+Hi1eu+oXvNdpzCp5blHPu75nPCsdyuXprbd/LVWy9v3WjYrh3bxtf2MZCPX7Y2mq7PUAxI444grQTfg4tawLPM+ZVGZLnBaO/XVYKm0Yz6TStfX30l33/Ke735ZiZuZX1tZEDv5neJhTs/Z7u7LxuFFZ7W9n/asilMtWX8r7z5Gg2FXa6pWXnZeWV7ygXFuX+WG7laypesTaukwxxwFuOaOjOxTx+s9ncoZzrJu3Sdiem2iShS1Iah1ckQuYY1OCY0BzMlsWLC74mPkNpgg80iVAdR8aBk+ZQA73do5IKc+5h4zv253BpZ4+auvrjit9Ye6HY0fUgA712mtPXZ988K57hNg2KbQt72RF8N24DR3D2OdfWY/FsdsbSfws+nHDDoGhcuNA2sEfHHeW+aset61MKYNRu/+msBF/rmO2SlF6xPSXBx6QFIp22hxqEEwH5fCr/TTAJd1L/exsGtAoltd1IL0p9IcwIHueL0twNCp1NylXzAGvuNyRu91vXJni0+DfCwJk7foZTSzFlI5TgkLfUNHf9/4AKsFemB+hrrUmN8Q6yreqkpxcmFoy+yVufZa2YJWglUG0ydR9pNp5rWMAcy0dzultb4HYiAmZZC1bwOSEVjFVworXHwzk8CAfYIPUJAz45htDhAyT92z1+QN+kg00HTb/Hy9+s5W3qRb+p5g/6QuZPcj4LDyRtH6uXmzwg5TABjLm8pS8ESTi1QE/NS41FwApbI+92ix27EAn2QfzxY4KGv2TSX8MB5mDipZ+Vm8XrveM2iCqEejirvR1+OmYXdYmx0T8WgKKrEA6O0tm5qyTKdjeXbYp9iCdwbkgMAyNLj2sTATHLzYOwN62zxQ3jXA6d5wZ7TtfgUOtd3qpuoc+LaK7YFZSvTmXvc4+t6mdIoF2Qw0jP3UUNt3edS3TbpwuHfYJM25al8RMoVZDozs6jiAcPJ2W8CGgvpztxPDZfURB6iRVk4TBm9ngpb2osrUiyiO6tTqsMC4J7EyVgF9BxMNvBZGX1egQWkM+qhN9DAuWgUWF3aet5SRjGyjsgwDOdCgBZyHeel31jVh0WSFJQzYDz7RAH6y13btSBBNR4fDfq5i2GTVqlpkAArA/WbyYb0B9VuctxD6Gwwy3wsebK8xxFv6bpRxONoCL0FisRtVuKAAqoULUbbSACScA3DX3AeqGAFF6B3WNlp6M/5HCdbS0q1+8HxgIs2X2rkX6hbdM35A35CalXqhLw806kSIVs5DKXasNP68fuuq71bmpSHl0lk0xOq9uRcd0EDdB0iMHebM985uvgJc7oN2wnZsppGoKxQDq12m4/X4osvpI28r1ZnkSgrIb6xYAfXeE4yz1gtDVopC+b7rIsF0F+P2gk9Ar/rhsoCaCQBbpOciV9EuJ3x5bqN/ueCsWv7se0KviD2KWPZoC0drzI6Foo85/6PbafSj+qeNAaCsKpXYv8g1IUw5oKUv+Ur0PE2FQYNdoCp4l1a81vClYNohufKKZp5HmwhCqQ5dgv9teG9qRF4aTBykDErkaBunZUYVFqx2OScGilqjKJwgr4QkYySwP7PL4lD1nFiHUN4tSL/BHzT2Qd8j2oZ60Br5dPCM32feqwEURsN5aEw8VlYoYD7ICXVKAVk/fQu0kk1YIe4VqTdTS71VVKohbREw4xtH8musaroHt4T3yhf+h5l8YLSo4229n3UjcHx4+gEIedqiiUyrU5nqKMm9UHolpLH8dYwJKa4qQ0a3h4mq4aqYr+h0RiOy0NKYJexQRpuh2EUlsmPGGNGB5sp8A8eEcaayZ0GABz5iROdEAAFV6QTQboPpWD+c0CFu0Vq7G2Z17VcVN+HhgebPeOmWmgqB5+Xw0QFtUvnYvoqi9HO8iM4XEaGTi1CVwVAqEg4dMCkEia48mBraD9tN73wtApsjLZAQKrM7+p59mbS2bfwwLbKkG5KeAQM+FiEz5l4LDggmm4pegfwNx9PqW7WgMTBA+3K2hbhnmhzCWqXTehQAe7speoNqq0/EiLWQgDGIMFuOtDSqFilsVDKAM049CwO3SxxZ2ABT9DGLhI6iIYMjur3xclq1GAwzMRGLLqvIEN43YvIcdJxJIMHIyuO+OLY1zHU6E9PVgUqeEjhLS3Iswh1GsS/rgjvD9wCXwehWOYjbOMYcO14onnK0+suBIzXorrY1kSimyUrbKGUPsK69tOZ8G3t+7HAy0WMVWduGrE+VgxLKUJ2HsrCQeHVmjIV72BESc+2BysMy9BteDRsAJicjOFwLjcG3D4O04SasPuTiIAsDj/s8Kgl4eQSRh94HkgczZIKgAl9C68Bxeb+tDIF0PVZ3q01obeCJDaQxUCMK59iVg5Kj0Mkw7E/m4+bF4kMxKA0QgW83JIIvodNbBllt4L82ogcVmLLF3rb4OeFU6eEdRi94aqkjdACYMGbwaHvkIEiH9FBIDFdRTxmLODkfDAQJ0AGRia0j9jJoBHzJkq8Om6sWmXxGLwls2igY79U2aY3U+D+JGPgB/ZrAhInl0wUjbpXlP9oCGSAPEw2SWkxfEntYqrdP7xlTgtYBr4oOVLzww3BMmmcpBMKUQCqFcZBTw86Q1LQgtfP8YmWAtDNzqZ0jD5rqTJqFYRAirPrjkgkcB9YahRENCtcnMMS7xo8qUSUSBLYX+G8AU+Dy1fCPZPaOm0RYiUbQ45uVDnQzit0kLo/YgdwYdsAYtmR/YFWv0ATvXbX/wvW1QeOTBTL5BQYo2F96CnnJK2ACQOclE/jTesoRHHzLxUsoOSmFNIwhstpxpQtRrzXTNy7P1z+X93p+QdYCYGHvkJr94GIMIm+AYenlm+2PhaGDF806vqogOxSQsHzQeILcCyVjgPFmBIP6qdVAdqgyqsQzMttLpNkhVaEfFjp0n64NflQnrr8J8yVcONe1NYRuY2IKph65IJHgW1nuQQAHH9ZooAq7EBxgS7OeUWUYF66JeIlqIeVtpJQs74rywYym9IF3IVBgJzFzDZFGLvrEBTZUB8rC7/BSjDUf0r8LtmY8NBsYshRTMo5SPBZWzouABeFlxW4sMxwmHSbyT6I7RAWuwAcMirW6IW0SMIOh0NCXDXLiVsCAnWFTFOCKZhkWnbTA51zUsMIpKQI1TsmaE9JuYJprwKDE0NVHjhc9qlyM7kO6le+Qd5rqgHHWbSP6AHoM7dRIKTM6aXhqlBZRau1yCVw+XEhMRCZIjog/kQUf6YRCMHZoAjT1Ylo7rqErR8PY0MvOiShqcZJJ/EHS+OtcaENqRPvRU8cRIsUBVIX5Iqt0qTlakzExYzzs693fXgwRgq5/5IUDKPem8MzJCGpyhP3b/wES1KthHEgbEwpiAtjOyXLIXInHJ4bdsNbaKLh44Oa0Lc6HyEIUxnD1b30BBbmEyEf0BtVP24/DCPnaAmlwLS4zlEMjnsnCKNKdHOEtPCYlZg1sMPEDTqu2v1ifKiOvnS0EJGOADlTa5SZrWHKsKIvhpJBkOMvoFoe9WRkCeoUTtiIEPyIxtBV+Aq7AOR+4Gz6Q4W8tKIASwlh5DCzB68D3o0A99I3R/TTS5fTpEFbt3EJkQQRQTthmKQQU+BfSCOKwnYv3AicbouyHPiPnI/1oMOkE0VMyo7qPQqmxBxluErgBAPqDcYYGAyYANaLZaCiiBd8IhVpEZI1m4sqohHJbwp9ugN0wCOAHK0h/Gq4L64lU4kbqR6oLdaebrkhlfeJM9D00+cPXTMABKeL+OAnCoD1roq3oVzvjqKIFmoNW8CLGoq7IKaS4yLPt9kOPsMQVJ+Qy8n8NNuX179GFc+0zhRp4BdlmjA6Xn0kqE4xv0QGemKvBk6CbmoEB7ed1KBhRQiOZQTgic2ty/Y1mvcgRFoBcwMIB8PSaEYwkETDa4iRlYrqRaQrwprY/IXuchqyfX1AM7T3oaOEQKsHFdTNkHHgW+zfk9YuyF1Qjg0D/gWkWFh+syMHqBuLM7tpcuAq/WVmYrqKYeAoGhA/eWITm6CjXQQEpgDaPEex0q3wmagMnh8cPTXEht4dP4fr3aW9yIIJZREi0ATEDMOZaRYCU+05sDtxEDTacB2tZMAyzQqqjPMDiLb5EkXR6xQgbUII7EkoHptoblBAvtlRYZoE1wNjAso/ghz29RR1ouCPmkrSpivluhINNXXEgAzRhT1Aa4hCVYO3glHV1wYYenNiCG7pMtEaCEEaIyrH8+wowCsdNz5QFwsDF+8JQUP8r+3kRTgSVJHUnOCIswb/aPIMasM0NLC8uU+XCsxhIqfCykphWZtR2JxaYNn430k1lZVmgES5IYqnMWJs3akmUcMoJauOYF7ggJsckNuy0UBy6CM+B2hX4CrIofHR5gAkRtKzdpklcQ6bo8Puo4SN1HCCmRLdcZaTlWM0pa/xzKwGxRDJAmZegzTAEWnvdhTQmYcdc4DIMTifJVSGSIsBHqDyMg4BoE4Z5aI/JSfoNNwEf7dtcbEEnvsnwSCPE0ydvCrNmWscYh3F9wKhtWnEOkqp8OHXDqSkyomu2fzZh5u8mzPhxMNBlpGnKRcy1lc4UB1yy6CVkkPTZMFlUTm90uFc7o7e2A1GjNfiDfuGgmyfpC4uFHeOaHNgZCr6TSzCAqK2PvEXROHskjwSC9WNSj7WkjU3mlkW7jxEy/CZfaQOBJdwsEE3nZe0gIbfaTNRW3OCopW2f+jy//WnWIfoQ9/EIYz8NRreQlramsRRxJRKpNkMJG8IVnDPRjPHjCvBHfYIqhb+sqGL4EDLDOrAuhhVa5ppFJHl1S4nwNpBeyJBWjKg3vAzb0AiyNVcwXNoXI+vyD8/6SMhPOhOF1IErIe8SDA8Dm0d7cXSYtmML57hQqQXwC7CoI2fCQkxiOypNQx0tdDHk0YlwC8VVrmG9yFUR2uSSkKh8ILF5pQA5VwgB4iIyEmzBJo5bcL4wNTH54Qm1nwgoV4eALg4bMxknVEGjy7SmFHFsCXnQg66FiDCqDq613TzjITOYTCRiXEB+78CM1qc+xEhOsTEEJuOVboBmKRocJE7VmqsDGAGT0sqCzEaAf8TqAh/3yBpxTlYZAotNsYvk6RAbaS9pCwcu1F4LJILwvSKfMOCOmru2t4nMxH8C/lQIb7gnPBR2ijQLBJCEFKghY1mynISyzVJfdAazRcalAgoNWNMi/hbzygw8vCPti9nChxeb/RGeA8uxjjSKkdMJueO/48YdbPQemwHd1vpoFEwy0Z8lp0G043wWXv1uUDe1GR+OIPftMM9KjMIITZwYKjZp30UNbmdGjnA0e5t6akyov/aONqpMPU5t8YR8Etzt2k20hMDrAlBHJg6Ad9x8u0Xbg0/74MoqdscikRHHU/32HLCYiHHIZAgtPL1DD3Ica0vGaGhCgQkNvTUFHbIbnLAlCCBsqZEa1Scey84o+FFZbK9Kxpg3OrWxKYmeGEAbq0F58IXYA0f7iG6X0mtK2lu9un/bDxnohgeXwAOna2vdB5rg2tJBR7JMmb5F7WQOujvigcjujzZZrjo93SlmEbF92hhf3x0pHILrTpM25snIoBVTmhPhB36AQJe2ixYQZdyNSXTdIOzg+ttdSsEk/DGdbw8EXl26VztxPDhWPLAoEiKuMtzayKmoAj2Mya26DaEUxGpAWPjs8kn0jLfp5iz6O0eC3uhdVIfwAAXhTeCQwQzoHHwIR0VJSUGmfCZtfwfMpOH+/XboHR+Gnc54aO1zVN12zOPP1rHj3+pDfTkYsjlF9vK7K61oENpOUIriwJVjfvHPrdW97YKIDNZ12wytibqfrT8USHC5y3nKSVLp3mcir1XYvi5YGJTo1kDSveinjVzK+bRHXGLXvcT6UQR5IwL83eTIyBfahqB8oU+nzBUrdxP0PA5yBhsPCSKqTduqQQujhlzoUCIhelzJeN6BAU63fbEwPDknQmSMGCTSF5PGt6VtCbLEI8nemxagd6XjSaUMribkkbWutoOBPp0aZISNRmr0JZDHFRcuRxdrv4iR6vZevYgL+eAs6bjBwrrPIN3fEIvuPZNpXbdKtZ2OracZKmRmrCBIZwb4qP6ibgY9tTlsipGAbYC8c0UACo1CLddVox21nQaFkLrRmkHyp4E4T9fdIJwT68j6W9PfR1TehbHrvqZGQ+CGLo9h104OarVE/pxGu0lEO5LDnzuw37Z20r8YqeKGxrZ23TcYRcnoVWw+xcYwwSxLBnLI0pMMiX4dYtOfk1wiEMmsT4Xsc/WXAgkZY93XuFgsREC2HO4KdFxSYTPXyzhsLD6iomCMZcSEDrxzJH2yaCtCrpMEwgJM8IlY4nwurZFIR/iB2ux8d9nI31Q+EYm2np1FKmq8SrcCGxS3DnUXac9xG2R2UPXtB45IzOqiAeaD1/GJH8A6Ot5k4/GRd+1ZYFDLwrXvsmUecIv6EwCgQnb+NjmZcdiKJgxUrYrk6w/CYEAX3yUwg/Zj8BEeLACySCp5yhnwWVfM2BjdgnO3iImQrbax1rv3gyE2DO7b3+2HCVsSGaku7gn2ZH06dvg0KdFo+hOOzixI/AGq120FMh4SlY5u4Wjb3CUgjgGaAFt/GEBiwg1iLuhH5//C0BGYl3ZhyH4tDNwFjIQ1XrE2/bkBFgeCafsXPVjFX/4wjMkI/xdipoDCW+t2dAAAAARzQklUCAgICHwIZIgAACAASURBVHic7Z15fFTV3f8/3ztZIGCIkEASEjYhJJlJiIBCoGwqxl1Eoda6PRWl9lGrrfbxqdXa9vGnba3aauuKe9WC4r6gIqsEXCDLzISEnQxJIIRlgLAkc7+/P8Kwmcx67z33zpz369XXizp3zvnMhbxz5txzvgeQSCQSiTBIdABJ7LNo06JuGSkZaezj0xVSUol8qe0+9LQRerCidAejGzEnM3EiWEkAVAWKAqgqAEUFqe3E1MZEh0E4BKBVgdrKsO0DY58twbdX5YS9CXsSduXl5R0W/XklknCQEpZERUVjRd/kBCVX9XGOqir9iShbIWSqQCYBfRnclxh9QNTTgDgHADQz804QbYfK20HUyMwNiqJs86k+j0pqfUlWyQ4DskgkISElLAmKk51J1ETDQL5hDOUMAoaAeQiIBjF4EIG6ic4YBgcBbAHzZhBtZGCj6lM3qIq6PqEloc7hcBwRHVASX0gJS06ibmdd6mHfYYeNUehjFCpAARMNJ2Cw6Gx6wypvhkI1xLyWCG4fwX048bBrdO/Re0Vnk8QuUsJxTk1zzXC1vb0EhBEMKiZwEUADROcyD7yVQdUErgKj0qdyZXH/4rWiU0liBynhOKO6obpAsSmjmdXRBIxkYBSBuovOZSFambEGxN8T4TvVh++KsotqRIeSWBcp4RinorGib6JKpbApYwCMAeNsgx6SxQfM+0H4BsAqBq1Uoa4qzizeLjqWxDpICccgrkaXnYnHEzAejPEgnCE6U7zAjA1E+FoBvvYlYLkj3eEWnUlibqSEY4SahqpRPkWZBOaJBEwAUW/RmSS8ixnLQLTUZrMtKcgo+F50Ion5kBK2MNXbq0cQ0zkETAHzFDnNYGKY94NoEQOLuI2/KsotqhQdSWIOpIQthqvBNVBV1KkEOg/gcwmULjqTJGx2MtSFDPqyndu/PDPrzM2iA0nEISVsARYtWpTQL79PGROVMaOMiPJEZ5JoRi3AnxPzgoLMos+IyCc6kMRYpIRNTE1zzXCfz3cRmC8koqmi80j0hRlfgPCpzeb7pCBjRK3oPBJjkBI2Ia4m13nMfAmgXkKkyJUN8QZjAwMfEdFH9kz7l6LjSPRFStgk1DTXnNbW1na5oiiXEnApALmBIs5h5kMg+gDAB/u9+z8cmzfWKzqTRHukhAVTWV+Zk5hkm8bMVwB0jug8EnOiqvyVzUbvttl8741IH+ERnUeiHVLCgnDtcA1jn+9KQJlOhLNE55FYBf6Gmd9t96nzS3JK6kSnkUSPlLDBVG2ryldsygxiXAVCseg8EmvCjCoQ3k6wJczLz8iXBYUsjJSwQbh3uPNY9c0E00wQikTnkcQGzFxNhLmk2OYW9i2UI2MLIiWsM85tzgGk8NVMuJpAZ4rOI4lNmHkNAW+xSm85+ju2is4jCR0pYZ3YtHtT2sEj+69hla4BYbzoPJJ4gZYTqW+2H+I3iwcW7xadRhIcKWEdcDY5f0LATwFcLDqLJG75mIF/OzIdb4oOIgmMlLCGOBud5xDxdQBdCyBBdB5JfMPMPiK8xkyvObIcX4nOI+kcKWENqPBU5CUlJlzPjBsA5IjOI5GcgocYr7CNXrH3ta8THUZyMlLCUcDMCTXbnTcy6EZAzvtKzA0zVkDFy811zS9NmTKlXXQeSQdSwhFS1VA1SVGUnxFwvegsEkmYvEqq+mJhdvES0UEkUsJhs7phdUYSJd0EYBbJY4MkVoV5PYPmJPGROXnZI5tFx4lnpITDwNXguoiJbybCNNFZJBItYOb3iPl5e3bxJ6KzxCtSwiFQ1VTVLwHKLQzcAvngTRJ7eAh4rh3qc/KkaOOREg6Ce3v1+Qz6ORhXiM4ikegK4V2C8kxhv8LPRUeJJ6SEu6CisaJHIttuBdGtIAwRnUciMQJm3kiMp9vI93RJVskB0XniASnhTqhprhmt+tr/Gx1LzySSOIRfVlT+Z0F28Xeik8Q6UsKn4GpyXctQbyPQGNFZJBKRMHgVQXnKnml/XXSWWEZK+Chrt61Nb1Pa7lCIbgeQJjqPRGIKGHtU8JOJPRL/kZ+av1N0nFhEShiAq9E1BlDvANE1orNIJKaE+Y2ERPr78HTHN6KjxBpxL2FXo2smg+8kQqnoLBKJqSGUg+gJe1/7XNFRYom4lfBcnmuz7yi4i1W6iwjZovNIJFaAmRtIweOFfR2PE5FPdJ5YIC4lXO2pziUb/5pI+aXoLBKJJWE8ofr4saKconrRUaxO3Em4uqH6LALuJoVmis4ikVgZBs9NsOHR/Iyib0VnsTJxJWF3Y9XFKin3EDBJdBaJJBZg8BKF+a+FWcUfi85iVeJGws4G5w1QcA8BdtFZJJKYgtnNTH9xZDteER3FisSFhN1N1Xcy070g9BOdRSKJTbiJgD8XZhY9ITqJ1YhpCS/atKhb327p94LofwB0E51HIollGHyYGI8kZiY/nEd5h0XnsQoxK2G3x92Hbb7fguhXorNIJHEF82Pks/2/wpzCFtFRrEBMSnhdS3XukSO4D0SzRWeRSOIS5mdVHx6SS9iCE3MSdm53DiXm3wF0g+gsEkl8w6+gre0he+5IecJzAGJKws6dzkK0434CrhadRSKRAAy8BRV/cmQ73KKzmJWYkXBNU2WRCuUBgK4SnUUikRyHGe/YyPaHgsyCatFZzEhMSLh6e/UIUvF7IpJHEEkk5mS+DQl/yM/MrxIdxGwoogNES01TZZEUsERieqa3c9uDNU01RaKDmA1LS9i501moQnlAClgiMT9EdIWK9gecDc5C0VnMhGWnI5zbnUPB+JNVHsK1th5C847d2LXLC6+3Fa2th3DkSBtUVYWiKEhKSkRKSjekpqagd+9UZPQ9HSkpcn+JJCZ5C21HHpCrJjqwpITXtVTnHmnDn8y8DM3t3oS62q3YsLEBW7c0oaVlb9ht9OnTCwMGZuKMIdnIGz4AhYWDdUgqkYiAX1Hbcb9cR2xBCR/dCfeQ2TZiHD58BN98U4PV369FZeV6HDnSpnkfSUmJGDFiKEaOysfZZxcgOTlJ8z4kEsNgfpZ8tvvifWedpSR8tBbEQ2baily7dguWLK3A18sr4fOphvVrsykY/6MRmDSxBMPzBxrWr0SiJSrzY8mZyb+N51oTlpKwq7H6QRD9XnQOAPjuuxosWLAKNe7NoqOgoHAQysrGYPToAtFRJJLwYf6DPavoQdExRGEZCbubqu9k0MMQXA2tunoDPnh/GWpqNouM0SkFBYNw2eUTUFR0hugokhjD621FamqKLm0z+LAC3BuvZTAtIWFng/MGIvxZZD3gXbu8mDt3IZYvqxQVIWR+NGEEZs48F717p4qOIokBvN5WLFhQgZycPigtHa5TL9zEKt0bj4XhTS/ho0cS/VnkiRiLF6/G668twKFD1pm26tYtGddeV4bJk0eKjiKxMH4Be+o7np2NLc3TT8TMboLtN4VZhXF1VJKpJVzdUH0WKfRXUWfCtbW148U5H2HZsgpN2uuT3gv9+vbG6aefhtNOS0FychJsNgU+n4rDh49g375W7N69D9t37ELLzvCXtHXGhAkl+NlNlyAxMUGT9iTxw6kC9qOniBm8hFXcU5QdP4eHmlbC1Z7qXFLwqKhTkTdvbsRzz76HrVu3R9xGfv5AFNoHIy9vAIYMyQ5r80Vr6yFs3NiAurqtcLs2Ye3aLRHnGDCgH26ZPQ2DBmVF3IYkvuhKwH50FvFc+OgeR3/HVl06MBmmlPBcnmsrbMr/G5HySxH9r15di6eefDuitb55wwdgXGkRzjq7AL169dQs0969+/HtNzVYUV6Nutrw/20mJSXittuvwsiRes3pSWKFYAL2o+/UBJ4ozLT/moiMW/cpCFNK2LW9+m4w/VVE38uWVeLZZ94N+33jxxfjvKlnYdiwXB1Sncy6dfX48otv8fXX4Rekmv3zKzBhwggdUkligVAF7EdXERPfY+9X9Kg+jZsH00nY1eiayeDHiZBtdN+LF6/GC89/ENZ7xoyx47LLJ2DgwEydUnXNli1N+OD9ZVi1yhXW+2bdfJl8YCf5AeEK2I+OIm6AQnfZ+9rn6tG4WTCVhF2NrjFHBVxqdN8rvq7Gv/71TsjXZ2en4+qrp2LkKPFf71d/X4u33voCDQ07Q37PL35xJcaNl1UFJR1EKmA/eomYmcsTE+nO4emObzRv3CSYRsJrt61N9yltfwfRNUb3XV29AX9+5LWQr596/tm4/voLQWSa2wdmxquvfoovPg/93+r/3Hud3NghiVrAfnQbETO/YeuR+Mv81PzQRxkWwjT1hNuUtjtECLipaRf+9c/QRsBEhNmzp+GGGy4ylYCBjmw33HARZs+eFnK2f/3zHTQ1xXXtlLhHKwEDgNvl0SBRJxBd03ag7Q59GhePKUzianJdC/CTANKM7vtPf3wJtbXBl3/16dML/33bVcjL0//BW7TU1dXjn0+9HVL5zOHDB+L+B/7LgFTWxetthae+BXu9rfB6D8LrbQWALsV14vbe1F7dj/3/3Jw+SO2VgpycPvqHDgEtBZyamoKbZp2rQaouYOwB0e32TPvr+nUiBuESrmmuGe3ztT9FoDFG9/3v1xfg00/Lg17Xv38G7vrV1cjMNMcPTyg0NbXg8cfewrZtzUGvvfDCUvz02jIDUpkf71HR1tfvhMfToomgOiM1NQU5uX2Qm9MHhXbjf7FbSsBHYfAqVnF7rG3kECrhisaKHolkewqgG43ue/XqWjz2tzeDXpeVnY7f/OZaZGQYPkiPmubmPfjLX15HYwgP7H7165/E7Rpir7cVLle9rtINRmpqCgrtOcjNTdd9pGxFAR+HXz7oO/zfo/uPbjWwU10RKmFXQ/XdUIxfD8zM+M09T6GxMfA/wtTUHrjvvhvRPyfDoGTas83TjIceehle74GA12Vl9cFf/nqb6ea69cIvXrfLc2x6wSz4hWy352peuczaAj6KyvfYs2Nn/bCwnzj39urzWaWnQRhidN/z5n6F999fGvS6e++9Do4YWD3grN6AR0JY/XH55RMxY+Y5BiQSh1++K8vrREcJiUJ7Luz2XE1GxzEhYABgbCRFubWwX+HnYgJoixAJVzVV9bOR8jQYhp+S3NTUgrt//WTQ66677gKUXTDWgETGsOCzlXjttc+CXvfo32631Nx3qHi9rSgvr4PbZc0jzVJTU1Bamhfx/HHMCPgozHhXJfXW4sziyIu7mAQhS9QSoNwiQsAA8OGHy4NeM3asI6YEDABlF4zF2LGOoNeFcn+shF8+c15YaFkBAyd/Do8nPJHGmoABgAhXJEC5RXQOLTBcwq4G10UMCLl527Y1Y8niNQGvSUnphmuvi82VAtdeVxa0ktuSxWtCWlFhdjpGvrWWl++peL2tmDd3BRYsqAhpLjsWBeyHgVtcO1wXic4RLYZKeHXD6gwmvhlAjpH9+vnii+C7yWbMPAdpaacZkMZ40tJOC2nON5T7ZGb88rXKvG8kuF31mDe3HOXltV1eE8sCPkoO+9Sb125bmy46SDQYKuEkSrqJCNOM7NPPgQOH8NXC7wNeM2RINqZOPdugRGKYOvVsDBkSuDbSVwu/x4EDhwxKpB1ebyvmzVsR0/I9Ea+3FSvL6zDnhYU/GBXHgYABAEQ0rV1pnyU6RzQYJuGqhqpJAITdrOXLK6GqgUuTXnzJeE37rKnZjPnzF+Oh/3sZS5dWoLl5j6btR0qwz6mqKpYvN/9Zeifi8bR0zJcKWucrko4piuOj4ngRsB8CZrk7/GJJDDnzhpkTXNtdPyNA2Hqv8hXVAV8fPDgbY8ZEf4xdTc3mDvm+s/gH/x0A0jPSMHFiCaZPnxx1X5EyZowdHw3+Gps2NXR5TfmKapSVGb6JMSLKy2vjZvTbFf5Rsf+hXbwIGABAOEOF8rNFixZ9PWXKlHbRccLFEAnXbHfeSKDrjeirM7Zta8b69YGLi5xzzqio+6mp2YyH/u/lgNfsbN5zTNAiRXzOOaMwZ07XEl6/3oNt25rRv795N6poOeKLFbS6F5YR8FGIcH2/gvRlAF4QnSVcdJdwhacijwVsSz4pw5rAo6Ru3ZIwcVJJVH00N+8JKuATES3iiZNK8O9/L8ChQ0e6vKZiTZ1pJSxKwP4dbP7CPKmp3QEAvU7Y2XZqoR/v3oOm25UXCKsJ2I/K9F9uj3tpYU6hpb4W6S7hpMSE65mh7WRrmFRXbwj4+pgxdthstojbb27eg7vufCLs981/ZzHS0zumJ4zGZrNhzBg7lizpesledfUGzefJtcDrbcWcFxYa0peWNR3MUKMiGFYVMAAQYRxs6vUAfic6SzjoKmFno/McZtygZx/B8PlUuN2bAl4zanR+VH3Mn784qveKkDDQ8bkDSdjt3gSfT4XNZpqy0/B4WjBv7gpd+9CrdkPHrreOIkn+8pj1nhbTrGO2soD9qOAbnI3OrxxZjq9EZwkVXSVMxNcBJGRNsJ/16+uhqtzl6zabghEjhkbcfnPzHixbWhHx+3c278HSpRVCRDxixFDYbAp8vs5XjagqY/36egwfPtDgZJ2jp4Cj3RYcSX+F9hQU2nNRWpoHr/fg0YJCYoQcCwIGACLKAfg6AJaRsG5DHGeT8ycAXatX+6GyaVNjwNfz8wdGNRURzShYyzYiwWazIT8/sGCD3T+j0EvAqakpGFuah5tmnSukrq8/Q05OH5SVleCmWeciJ9fY2h2xImA/zLiuwz/WQBcJb9q9KY2An8Kg1ReBqK8PXN9j6NDIB+qhjILTM9Iw/crJAa/xj4ZFEOzzB7t/RqCHgE+Ur25HtkdAamoKZswYh7KyEkNkHGsCBgAishHw0zWb1liiCLgukjx4ZP81AF2sR9vh0tgQ+AHIwIFZEbcdygh29uxpSE9Pw9KlFdgZYLOGqLnhYJ8/2P3TG60F7J/vNZN4O6PQnotCey7crnqUl9fpsroiFgV8AhcnpyRcA+BfooMEQ/ORsHObcwCrxh/Y2RXNzbsDvp7dP/Jt5/4NGF1RUDAIBQWDkJGRFnQp2s7mPUHb04Ngnz/Y/dMTrQWck9vHdCPfYBTaczFjZinGluZp2m6MCxgAwCpd49zmHCA6RzA0lzApfDVI7JI0P8yM3bv3BbwmI+P0iNquqdkccGQL4KRpiIKCQUgPckSSCAkH+/y7d+8Dc9cPNvVCawGPLc3DjBnjNGvPSPyrKsrKtPumlNqru2ZtmRbCeFL4atExgqGphN073HlMMM2H3r//YMDXU1K6ITk5MaK2Q5nDLSgYdOzPGRnB1wOLmBdOTk4MWt4y2H3UGq0FPGPmOEuNfrui0J6Lm2adq8myOU99S8AKbLECA1dXeCq0/RqhMZpKmFXfTAKdqWWb0XDw4OGAr/foEVg+gQg2ap3QiXBPlHJniJqSCHYfgt1HLdFSwKmpKZgxc5xpjpjXgo7PVKrJQzu3yxN2gXirQURnJibYZorOEQjNJFy1rSofTKb6sG1tgWt5JCZFNgoGOh64Tb9ycpdi7WzUG+2UxEP/9zKeffY9zUUd7D4Eu49aoaWA/fO/sSRgP6mpKSgrK4l6ntjrbcWCz8SsyjESBn68tnltdDuydESz1RGKTZkBoEir9owgmoOF/Q/dML1jqZq/epp/NNuVnAsKBmFZc9f/8Gvcm4HpXbxWsxmoAZYtrUB6Rhoy0tNQUDjoeJYIMcMBy1oL2Krzv6Fy4u67aCrI+WtwaDnfbDYI5Gj3tc8A8CfRWTpDEwm7driGwcdXiTu7uXOCbbdtb/Np0k9GRhoyMkpCWmI2cWJJwLXFzTs7f9h36nzxzuY9J01fpGek4Ykn7gw99AkEuw96b1uWAo4cLUTsqW+Bx9MSk98ajsG4ylXvesuea18nOsqpaPLTxT7flSAUa9GWliQnJwV83ci5Tj/p6YGnI7qaFw62KSSakXCw+xDsPkaDFHD02O25Uc0R+8/ji2WIUMwJvitF5+iMqCVcWV+ZAyhdfIEWS48egZfheL0HDEpynIyMtKDCPHXU2xzCA7toNnoEuw/B7mOkSAFrg3+OOJpVE/7RcCxDpEyv3FkptJZNZ0Qt4cQk2zQinKVFGK1JSkoI+uR/Zxdf//WkoHBQwNdPFW4oO/MiHQkH+/w9enRDUpL2GyulgLXFv2oiGuLgId1Ztja6QnSIU4lKwjXNNacxs+k+1In0CfL1v7HR+N/+oSxV84+GQ6lP0dlyuFAJ9vmD3b9IkALWB/+IOFK83taYHw0z0zTndmdP0TlOJCoJt7W1XQ5Q8DPUBZKZ2Tvg6/VbjS9QE8pqhvnzF6O5eQ+ee/a9oO1FMxUR7PMHu3/hIgWsL4X23KiWrsX6aFhR6BwwLhed40SikrCiKJdqFUQvcvr3Dfj6ho3bDEpyMsFGrzuPntYRan2KSAn2+YPdv3CQAjaGaB7UxcNoWAEuE53hRCKWsKvJdR4BppfwwEGZAV+vq91qUJKTCWXjRigEK5MZjGCfP9j9CxUpYOM4cQ1xJMT6SgmV+bKqbVVTRefwE7GEmfkSAKavAnLGGYEfhu7evQ8bN3Z96rBehFJZLRjRjoI3bmwIWuAo2P0LBSlg48nJ6RPxaDjWV0oQUTdFUUxRaheIUMI1zTXDAfUSrcPoQVpaT+Tm9gt4zZrVYn7zRzsajnYUHOxz5+b2Q1padM8wpIDFEc1ouL5+p4ZJzAeBL65prjRFVaeIJOzz+S4iUs7QOoxeOIqGBHz9m2/cBiU5mYyMNNx3340RvfeW2dOiGgUDwT93sPsWDClgsUQzGna7PBqnMRlEQ31ttotExwAikPCiRYsSwHyhHmH0omTEsICvb9vWDKdzo0FpTiYjIw2Ph7ndePqVk6M+hcPp3Iht25oDXhPsvgVCCtgcRDoajocHdCBcuIgXCT+CLWwJ98vvU0ZEppnUDgW7YwhOP/20gNcsXvS9QWl+SEZGGu773Y0hTU1Mv3Jy1HPJQPDPe/rpp8HuiGwkLAVsHqIZDbsEnfxsFESY2q+pT5noHGH/FmAi4aEjYWypA59+Ut7l6ytXunD55ROROyDw/LFeFBQMwhNP3NmxOWNZBWrcHVXZ0o8Wg09PD14UPlTqt27HypWugNeMLXVE1LYUsPkoLR2OefXh/5146mN8JIxjPvtYZIawJOxqcA1kVsvMUPowXMaPLw4oYQD4+OMV+PmtYjcAHls1cbREZoYGy9hO5eOPg/9Ajh8fWT0mrRb7SwFrR2pqZIuYvN5WeL2tmpzkYV7ofFfD9wPt2aO2iEoQ1nSEqqhTicjUR4V0xaBBWSgqDvwscfnySqwVcLJFV+gh4LU1m7F8eWXAa4qKz8CgQeGfQj1v3gpNTgWWAtaW1NSUKDZvGHu0lQCGq0qS0OnVsCRMoPP0CmIE550XvM7QvHmLDEgijlA+Xyj3qTO0+PoqBawPkT6gi/WNG4B4r4Us4ert1SMAtvQZ2aNG5SMvLzfgNbW1W/Dhh8sNSmQsH364HLW1gb915eXlYtSo8E+CkSNgcxPxlMTemB8Jg4Bza7dXjxDVf8gSJqZzCJSuZxgjuOTSHwW95j9vfYm6OjHbmfWirm4r/vPWl0GvC+X+dIYWX1tj+Ygd0UQ6JaHFL1cLkN7G4gqRhS5hYIqeQYxi5MjhIY305rzwoZCTN/Tg4MHDmPPCh0GvGzUqHyNHRva1NdKR1onMm1seLz/0Qoj0+KKYXy/cgTC/hSThmoaqUWCOCQkDwJVXBf8o27Y14+l/zTcgjf48/a/5QTdmAKHdl65ITU2J+im619sqRawjdnvgqbiu8O6N/b8PYp5S1VA1SkTfIUnYpyiTQGSqQsjRMGBAP1wVgnBWr67F88+/b0Ai/Xj++fexOoTaGFddNQUDolwjXRrlEeyAFLGeRPpLcm88/F0Q9VQUZZKIrkObjmCeqHMOw5l2xSTkh1B7YcniNXjpxY/0D6QDL734EZYsXhP0uvyCQZh2RfT//gqjPHDSjxSxfkQi4jiZjhDmuaASdjW67ESYYEQYo7nxxouQmBh8v8rChd/hmaffNSCRdjzz9LtYuPC7oNclJibgxhu1q2MS7YGTfqSI9SG1l+mrzwqDCBNcjS670f0GlTATjwdI2zNuTEJOTl/cfHNoJ50sX16Jhx9+NWj9XdHs3r0PDz/8atANGX5uvvly5ORod3qG/8BJKeLYIR6WqXVAvRXi8Ub3GlTCBBgeykjGjS8K+YGUy7kRD9z/XEhzrCJYvboWD9z/HFwhVoS78qopGDe+SPMcUsTmJba3IEePKsB3ASVc0VjRFxzbEgaAK66YhPOmhrZLbPfufXjsb2/i9dcXwOdTdU4WGj6fitdfX4DH/vZmyCP186aehSs0mAfuCilicxLJUsJ4uu/MGF/RWKHdV8MQCCjhRJVKQbBM8fZouPHGi8M6Ov6zT8tx96+fxLJloX3t14tlyypx96+fxGefBi5OdCITJpbgxhv1P91Fith89JIj4YAQ4YwEShhrZJ+BpyNsyhiDcpiC2bOnYdKkM0O+vrl5N5595l384cE5WLUqcGlIrVm1yoU/PDgHzz7zLpqbd4f8vkmTzsTs2dN0THYyUsTmIrWXlHAwCGyohIMtDYgrCQPAzbdcju4pyfjs05Uhv2fdunqsW1ePd3OWYOKkEowfX4xevbRfVr137358/XUVli6pgMezI+z3X3DhWFx77QWa5wqGX8RaCNQvYq3EHm/Ew8YLDTDUe11WBq5uqC5QCN/E0iaNcPjk4xV4443PI35/cfFQjCgZBodjCPr3z4i4Hf/RS5UV61BVtT7idq655nxcdLHY4jhajmS1HGHHE25XPRYsCL/m812/ulSHNKblgKryWUXZRTVGdNblSFixKaPBHJcCBoCLLh6HrOx0zHnhA+zZsz/s91dVrT8mzV69emLQoCz0z8lAv7690bv3aeh5Wgq6dUuCTVHgU1UcOnQE+/e1Yteufdi+Yxe2eZqxeXMj9u4Nv+8TfWqZvAAAIABJREFUSUvriZtmXYYzzxRfBlqOiMUTF7vfoqcHgLMAGCLhLkfCzqbqvxPoDiNCmJk9e/bj1Vc+EXYiczScfXYhrr/hoqiPrdcaOSIWx4IFFXBHcHZcnI2EweB/ODKLfmlEX10+mCNgpBEBzE5aWk/c8cuZmDXrMvTsaY0f9J49UzBr1mW445czTSdgQD6ssxrx+AvOSP91KuGa5prhDAipKGRWJk8Zib89djvKysz9rLKsbAz+9tjtmDzF3L9DpYjFEMnpJ/G51ZlGVnoqI6vrGiadSlhtby8hUDze+YD06NEd111/IR758y80O/lYKyZOLMEjf/4Frrv+QvToYY2/OiliaxCPI2EAKQk2xZAf8s6nIwjCjvqwAjk5fXHL7Gn466O348KLSpGS0k1IjpSUbrjwolL89dHbccvsaZrWgDAKKWJjieTeaFGw35IY5MFOH8w5m5wfEaD/lqoYQWVG+YpqrFrlwurv9a8rMXLUcIwZY0fpuCIo1OWzVUshH9bpT6TL08rKSlAYYUF4K8PAx45MxyV69/ODn+C6nXWpbe2HqwEaoHfnscihQ0dQVbUebtcm1NZtRf3W7VG3mTugH4bnDUChfTCKi4eiW7ckDZKaDylifYl0ZcRNs86N1/tYfzDpUNHo3qP36tnJDyRcvb16nML0tZ6dxhMHDx5G/dbtaGjYie07dmHXLi+8ew+gtfUQjhxpg6oyFIWQlJSIlJRuSO3VA717p6Jf397Izk5H7oB+6N49WfTHMAwpYv2Y88LCiO5rvC1POxGFbOML+hWs0LOPH2zWsDEKWc8e44zu3ZORN3wA8obLLxahIDd06Eck91OLk1KsDHN7IQBdJfyDB3M+RqGeHUokwZAP67QnkmkIIG5XRhzDCB/+QMIKUKB3pxJJMKSItaU+wnPicnPieyRMRPl693GShJ3sTGIiQxYoSyTBkCLWjkhHwvE+HQFwvtPp1PVJ+EkSpiYaRsBgPTuUSMJBijh6IhVwoT037qcjCDSY+rQN07OPk6cjyKdrZxJJJEgRR4fLHel8cJxu0jgFn2ozTsIMJS6OMpJYDyniyHC76iOqFwEA9jjcoNEZik1fL548HQEM0bMziSQapIjDJ9JRcE5un7ifivCjtxdPno5glhKWmBop4tCJahRcKEfBx9HXi6fMCdMgPTuTSLRAijg0ysvrIn6vXBVxIjRIz9aPSbiisaIvg3XtTCLRCiniwLhd9RF/Hrkq4mSYeXBFY4VuJQqPSTg5QcklkJiajJKI8XpbO752RrgY38pIEXdNNKNg+UDuZIgoWWFFt7oDx2pHqD7O0asTibZ4va1wueqx8pQftNTUFBTac1Baas79Nm5XveYlEWWtiR8yb96KiO9FTm4f5MT5LrnOsCm2/gC+06PtYyNhVVX669GBRFs8nhbMeWHhDwQMdEhkZXldxNWy9GTBgopj/9MaOSI+Tnl5bcQP4wCY9he4aEhVdfPjMQkTUbZenUi0weNpwby5wQs6mU0kJ9axjbSweDCkiDv+fXT2yzlU5Ci4a1Qd/XhMwgohU69OJNETqoD9mEUknRUSlyLWno680VVclKPgAOjox+PTEZASNivhCtiPaJEEOslBilhbor2XhfZcOQoOjP4SJsB6p0TGAZEK2I8okYRylI4UsTbMm7ciqnlgACgtzdMoTcyi/xI1BksJm4xoBezHaJGEc5aZFHF0LFhQEbWAy8pKLL0axAgIyNCrbQUAFm1a1I0Y8ruIidBKwH6MEkkkh0lKEUdGpAd3nkhObp+4PEk5bJjT6+rqdDnsUQGAjJSMNBD11KMDSfhoLWA/eoskGilIEYeHFgIG5MO4kCHqeaTXkdP1aFoBAPaxLo1LwkcvAfvRSyRaSEGKODS0EvCMmePkw7gwSFDUND3aVQBAISVVj8Yl4aG3gP1oLRKtpADod6ZZrIhYq3stV0OEj69d7aVHuwoAEPmkhAVjlID9aCUSLQVcVlai6/yk1UWs1b3Oye2DsrISDRLFGZR4mh7NKgDQ7oOcDxaI0QL2E61IrCRgP1YVsVb3OjU1RQo4cnTxpAIANkIPPRqXBEeUgP1EKhIrCtiP1USs6b2+QC5HixQG6+LJjgdziiJP9BOAaAH7CVckVhawH6uIWMt7LR/ERY0uv706NmswZB1hgzGLgP2EKpJYELAfs4tYCthk6OTJjgdzzLosQpZ0jpYCzsntg5tmnWuISGJJwH7MKmIpYBNCSNKj2Y7pCOJEPRqX/BCtBTxjxjhDRBKLAvZjNhFLAZsUVvWTMFhJCHKdRAP0ELAfPUUSywL2YxYRSwGbGIYunjxawEdVAl8miRY9BexHD5HEg4D9iBaxFLDp0cWTHY0q0sF6YoSA/WgtkngRsB9RIpYCtgA6ebKjVVXVpXGJsQL2o6VItMAqAvZjtIilgC2CTp48qnZFWlgHRAjYj1lEbDUB+zFKxFLAVkIfT3ZImNR2PRqPZ0QK2I9oERslYI+nxZLV16SALYZOnjy6Tpja9Gg8XjGDgP2IErGRAp43d4XlymBKAVsPvTx5dJ0wHdaj8XjETAL2Y7SIjRawH6uIeM4LC6WALQgT6+LJo9MROKRH4/GGGQXsxygRixKwHyuIWCukgA2GFF086V9zIf68FovT8VXTnAL2o7dIRAvYTzyIWApYCLp4suNkDahSwlHgn+PTAr0E7EcvkZhFwH5iWcRSwGJQffp4smNOGLZ9ejQeL2hx7Digv4D9aC2S1NQU5OTqL4Vwp3tiUcRSwOKw2fTxpL+UpZRwhJSX11pKwH5Eb9ENl0jn22NJxFLAgtHJkx0nayT49urReKzj8bRgZXld1O0YLWA/VhFxtA88Y0HEUsDi8an6eFIBAJUTpITDRKsHcaIE7MfsItZqxYnbVa/ZsrATMULEUsDmQElQ9ujSLgAk7EnYBeCAHh3EKlqMrEQL2I9ZRazlkr9Ce65uDw71FLEUsElg3o++2KVH0woA5OXlHQbQrEcHsYjbVR/1PLBZBOzHbCLWWsB6nzCsh4ilgM0DE3Y6yHFEj7aP1WZj5p16dBCLRDsKNpuA/ZhFxFYTsB8t758UsLkgkG6D1OMFMom269VJLBGtgFNTU0wpYD+iRWxVAfvR4v5JAZsPVnmHXm0fl7DKUsJB8Hhaon64U3aBsVKIBFEitrqA/URz/6SAzYmiUJNubR/7E1GjXp3ECuXltVG930o/YEaLOFYE7CeS+2elfx/xhsrQX8LM3KBXJ7GAx9MS1cO4saV5lvsBM0rEsSZgP/77F2w3Ycd1UsBmRk8/HpOwoijb9OokFohmFJyT2welpcM1TGMceos4VgXsx/8MYGxpXqev5+T2wU2zzpUCNjl6+pH8f6hqqBplU5Tv9OrIykQrirt+damGacSg5fpfv9i93oMxLeDO8Hpb4alvQWqvFCleC6HYbKMLMgq+16PtBP8fVFLrbVAOAuiuR0dWxhXFw7iuRkBWwy9OLUSs9c46qwgY6LiPhXbxpTAlocPgQ22+No9e7R+bjijJKtkBYIteHVmZaFZEWHUaojO0nprQAisJWGJRGFuKM4t1Wz2mnPT/mDfr1ZFViUbAsSgHM9TT9SMFLDECAjbp2f7JEibaqGdnVsTljkzCHV87rXfUeyiYQcRSwBKjYLBxEmZASvgUIl2WVhojc8FdIVLEUsASQyFlg57NnyRh1afq2pnViHQqIpZHwSciQsRSwBKjIdB6Pds/WcKKqmtnViPSqYhYHwWfiJEilgKWCIFhnIQTWhLqWJUP5/xEOhVhxHlrZsIIEUsBS0TAwKaDmQejPz4nACdJ2OFwHIFCNXp2aBUinYootOeaYuWA0egpYilgiTh47Wga3aZnD8qp/4GY1+rZoVWo90Q2Cs6N411QeohYClgiEmbo7sMfSpjg1rtTKyCnIiJDaxF76lt0PcVZIgkEqfrPDCSc+h98BLfCencbu8TjVMSp6LHFWfS6ZBG0tOyFp34HGhtb0Ny8G7t378O+fa04ePAw2trbAQZsNhu6dUtEj57dkdbrNPRJ74XMfr3RPycDubn9RH8Ey8MJ7NK7jx9I+HDiYVf3I8lbARqgd+dmJhJ5xMOytFCRIg6fpqZdcDo3oMa9GXXr6rF7lzeq9hITEzBsWC7y8wfC7hiM4cMHapQ0XuCtKYkpukuYOvuPzibnRwRcrHfnZsXtqo/oGKOyshIp4lPQo/paLIm4uXkPVpY78c03bmzapG9J77S0nhg9ugBjx9qRXzBI175ihI/tmY5L9O7kByNhACBwFUBxK+G9EQoj3ueDO0OOiDunsnI9Fi36Ht99a9xipD179uPLL7/Fl19+i4EDMzF5ykice+5oKMoPHg1JAABcZUQvnd99RqURnZsVr/dgRO+zuhj0QvThoWbi229r8Mc/vIi//uV1QwV8Klu2NOGVlz/Bbf/9N3zwwTL4fKqwLGZFNciDnUrYp3IlAGv+KxeEFHBg4l3EtbVb8cjDr+HvT/wHdXVbRcc5htd7AHP/sxB3/vJxfLVQnungh8GtCQlqdEerh0inc8IA4Gx0LifCeCNCmI1581aEvUQtJ7ePqY+yNwvxNkfc1taOt978AgsWrBIdJSQKCgbh6p9MxRln9BcdRTC83J5ZNMGInrqeDCLW5SgPK+DdG/50hJlFYCbiaURcWbkO9/7PvywjYACoqdmM3z/wPN5/b6noKEJhYLVRfXX6YA4AiPAd5HphiQ7Ew8O6+fMXY/47i6NuJzs7HQMGZiI7Ox0ZGacjLa0nevTojqSkBBAR2tt9ONh6CHu9B9DSshdNjS2or9+BjRsb4PP5Iu533ryvsG69B7NmXYq0tNOi/hxWg8i48za7nI6obqguUAjfgKinUWHMwuOPfRj2e8aW5sXUUUZGEItTE+3tPjz99HysWhnZ8tKePbtj5KjhKC4eisLCwUhN7RFRO8yMtWu3oLp6A9asqUP91shO50lP74Wf3zod+flxtMaYeT8zjXFkOwzZPdylhAHA1VS9EKBzjAhiJiKRsFwjHBmxJOKWlr148h/zsH59+GdCnnlmHiZMLMHZZxfqkAzYuHEbli+rwpIlq3H4cPj1aG67/SqMHevQIZkZ4a/smUXnGtVbl9MRR1kFIO4kLDGOWJmaaGzcicf+9hYaG3eG9b4JE0twwQVjMXBgpk7JOhgypD+GDOmPmT8+F58vWIVPPinH/v2h3++nnnwbhw4dweTJI3VMaRoMncQPuEqbQSuNCmJ1It3gIbH+w7qmphY8+tc3whLwmWfm4Y9/uhmzZ0/TXcAn0q1bEi67fAL+/o+7cOmlPwrrvS88/wEWLzbseZUwjPZeQAmrUFcxI+6OPBI9rxiPWFXEe/cewBOP/wfbt+8K6fqePbvjltnT8Ou7r8GQIeKWgSUnJ+LHV5+H/3toNuz2wSG/74XnP8DKlU4dkwmGeX07t5tHwsWZxduJ8LVRYayMJ8L6w5LjWFHE/3zqbXg8O0K69syRw/H/Hr4VEyeapz7yoEFZ+N/f3oArr5wc8nueevJtrF27Rb9QIiFaUZJVEtpfqEYE3TSuIP4knNqru+gIcYuVRPzC8x/A7Q7tNPTLLpuAX//6J+jdO1WXLNFyxfTJuOtXV6N79+SQrn/m6fnYs2efzqmMh1V1hdF9BpWwLwHLAQ7tu1YcE8kGD0nnWEHECxasCnl+9Mb/uhgzf2zYw/aIGTUqH7+7/7+QmRm8ENXOnXvxwgvhryIyNYzdRLblRncbVMKOdIebGcuMCGMW5JywePQQsVZs3NiA1179NKRrf37rdJx33lma9a03Awdm4n/uvQ65uX2DXluxpi6mdtYxeKk9y657/eBTCa2GHVHs3OkQSE0NfzrCrFtnrYzWIi4vr9UgFfD665+FdN3s2dPwox8Va9KnkWRkpOFXv74mpBHxvHlfYcOGbQakMgAW47mQJGyz2ZaAeb/eYcxCbm56RO+TD+e0R0sRu13hb6I4lY8++hp1tcGroP302jJMMNEDuHDJyEjD7XfMCGmO+K03vzAgkb4w8z4b1CUi+g5JwgUZBd+DaJHeYcxCJCNhAKivD2+hviQ0tBKx19sa1S/KXbu8eHveV0Gvm3r+2bjwwtKI+zELAwdm4ue3XhH0upqazZYvg0lEiwuyi4UULQu5pD4DcSThyH7YtRhpSTrHL2KRvPfeUrS3By6Kk5eXixtuuMigRPozalR+SMvX3n13iaULw4v0W+gSbuOvAMTNUC+So4qiHWlJAlNeXhd1G5F+y/F4doQ02rs+hgTs54rpk4Nu6Ni9ex8+/tiaq1kZ3MLEwb/i6ETIEi7KLapkqAv1DGMmcnIiOy9OTknow4IFFXC76qNuJ9JvOZ99FnwT1YwZ52DQoKyI2jc7P7nm/KDXfPbpSqiqFUfD9GVRvyJhR7qFdcIfg77UK4jZkA/nzINWAo60yt2uXV4sXhR4TXBObl9cPm1iRO1bgUGDsoLWmvB6D2ChBeeGGSzUa8GqqJ1EO7d/mUSJtQBivnBupF9b5aYNbdFKwEBHudFIWBLCpoxpl2sj4ObmPZq0cyoZGWlRtzHtiklYtGh1wOprixetxtSpZ0fdl1Ewo1ZhRejyjrAkfGbWmZtdTdWfAxQHEk5BTm6fsM+a888LRzqdITmOlgKeMTPy8/+WLQv8TXXo0ByMLY2+1m5z8x7cdecTUbfTGdOvnIzp0ydH1UZyciIuuqgUc+d2PSu5ZUsT1tZsRn7BoKj6Mgoi/tye5RBaCCOs6QgAIOYFegQxI5GKVKtNAfGM1gKO9O/S5dyIHTt2B7xm6vnWGflFy/llY5CcnBjwmpURnioiAmKbcJ+FLeGCzKLPmGH91dkhYI9wDtFT3yLnhqPALAIGgO++Xxvw9T59emH8eOvtiouUbt2SMGlS4MLu331XY1CaKGF8sX3tdutJmIh8IIS2cd7i+KckImHBZxUap4kPzCRgoKM+QiDGjS+Kqn0r8qMJgX/p7NmzH7W15i91yYRPp0yZ0i46R9gSBgCbzfcJ4qTYu70wstGw19uqmUziBbMJuL5+R9AHZWPG2KPqw4oMGdIfuQP6BbzG5QytxKcomNUNvnbfJ6JzABFKuCBjRC0DH2kdxoxEOhIGtNlcEC+YTcAAgo7msrLSY3ZdcDDOPDMv4OvmL/qufDQiZ4QpHt5EJGEAIKKPmPmQlmHMSGpqSsTrS+VoODTMKGAAQU9NdjiGaNKPFSkqOiPg6+vWmfrf/SEiMs0gMmIJ2zPtX4LoAy3DmJXS0sC/9QMhR8OBMauAAWDz5saArw/PH6BZX6GSnpHW6f+MJj9/IGw2W5evt7W1o75+u4GJQoeBD+yZdtNsPAtrnXAnfABgphZBzEyka4aBjtHwggUVEW8UiGXMLGBVZXjqAx81dsYZOZr1FwrpGWl44ok7O31t/vzFmP/OYsOyEBGGDMkOOOLd5mlGbm7guWNBmGrwGPFIGAD2e/d/qKriCl8YSWlp5PtT3K56uXb4FMwsYABBT0/u0aO7JrvQrEyw0zeaQjyB2kiYeaHNZosdCY/NG+u12ehdrcKYmZycPlE9pHO7PHLt8FHMLmAAaGnZG/D1zMzemvdpNTKzAt/3lp2B76EIFIXeK8goMNUJpVFJGADabL73AP5GizBmJ5opBa+3FQs+q4j7Y5CsIGAA2Ls38EEyffr00qVfKxHsHuzZayrXgRnfJtiS3hOd41SilvCI9BEeZo6L0XA0KyUA7Q+ctBpWETAA7N8fuBBTamoP3fq2Cr2C3IMDQe6h8ajz89LzTHfyQtQSBoB2nzqfGVVatGV2olkpARx/UBdvWEnAAHD48JGAr3dPCX72WqzTPaVbwNcPHWozKElIVJLN9o7oEJ2hiYRLckrqQHhbi7bMTmpqStQrHeLtQZ3VBAwAvvbAxckTErpenhUvBLsHPl/go6CMhIF37H3t60Tn6AxNJAwACbaEecxcrVV7ZiYnN7qHdACwsrwu5kfEXm8r5s1bYTkBAwAo8MvMxsQwMxzsJgS5h4bBqGaVTTtI1EzC+Rn5a4kwV6v2zIwWo2GgY0Q854WFMfmwzj//Hcna6s4wVMAAEhMDL6E/csRUX7WFcORI4No3iQnRbkPQCOK5RdlFpi3tppmEAYAU21xmXqNlm2ZFKxH7ZRVL25s9nhZNf7kYLWAA6N4t8Jxv64GY37EflAMHAj94695d/Lw5M68hxWbqwaGmEi7sW1hHwFtatmlmCu25Ua2W8OP1tqK8vC4m5onLy2sxb+4KzdoTIWAAOO20wAeC7tljruVXItizJ/AyvmD30AgIeKuwb6Gpawdo/n2BVXqLbHQpwIFPBYwBvN5WzUZ7Xm8rVh6tMxHN7jxR+Fd9aDX9AIgTMACknX5awNf1OgvOSjQ3Bz5x5PQg91B3GF9zMpl+UKi5hB39HVvd26vfZKaYlrAe0gE6Hti5XR4U2nMsI+Py8tpjv0C0QqSAgeAHYzY2toBhnmdPImho2Bnw9YyM0w1K0jmk8Bv23kVbhYYIAV1mztsP8Zu2ZLoIwMV6tC8avQR8Yvt+GZeW5mky5aEHesgXEC9goGMUl5KSjNbWw52+rqoqtmxujLqe8Ikj6p079RtdNzfvOakvLepebN3SFPD1rCDbmvWEgY9Tknq+ISxAGOgi4eKBxbudTc5/g/kCIoqpBZV6C7izvsrL61B2QYlwMfnxeFp024JtBgH7yc3th9rargdS69bVRy3hZcsqDKl+tmxpBZYt7VgSGagaW6h4vQeCjoRzghT40QtmVkH078GnD7bEnJGmD+ZOxJHpeJMIr+nVvgiMFPCp/c6buwJzXlgorAiQv0D9nBcWYt7cFTEvYAAYPCQ74Os1NWY/PUI/3O7Axxed3jtVWH0NIrzqyHS8KaTzCNB1IR8zvUaE8wAYW3hVB0QJ+NQM8+auOFbfOPdoZbfUVH2eQnu9rXC56uHxtOj+uc0mYAAYNiwXn326ssvXq6vWG5jGXFQF+ex5w4RNoXmYyVKDP10l7MhyfOVudL7ChPv07EdvzCDgE+kYlR4/OqmjsFAOcnPToxaZX7xul8eQTSSpqSmmmmo5kfz8QQFfP3jwMFavrsXIkdZ4gKolq78PvJyyoHCQMUFOgRiv2LMclqpxrvuWFrbRK+zjKUQYp3dfemA2AXeG/0Ge/yGZf2Sc2qv7sT/nniC5vUfl6vUe7Fhmt/egkF17ZhYwAPTq1QPDhuUGPD1iZbkz7iT8zTfuoFXmHI7AZ9DpAmPFEV/7q8Z3HB26S9je177Ouc35MmzWk7AVBNwZ3mOSbQXQkd1sO/JSU1Nw06xzRccIypkj8wJKeMWKavz02jL06tXTwFRi8T/g64rBg7OFFL0n4pdKckpMvTGjM3R7MHcizXXNLwGw1G8oLQWcmpqCsVGWwIwlCu25lhAwAJx1VkHQaxZ++Z0BSczBli1NWLMmsOfOPrvQoDTHYeDVgn6OlwzvWAMMqbAxZcqUdndD1YtMNA5EQ43oMxq0FvCJwtFjXa2VMOMDuEBkZaWj0D4YblfXqwE+/3wVLrl0PJKSEsNuPz099NOSM9K7vk6rdoLx2WddP6j0M7bUEXH7kcCMDYpNeZGIzFM7MwwM3fDjbHTeS4SHjewzXPQUsNbtW4nU1BTMmFmq20oOPVm+rBLPPBP48Jgrpk/ClVdOMSiRGDZu3IYH7n8+4DWjzyrAnXf+2KBEHTDjfx1ZjkcM7VRDDJmO8JPER+Yws+nOePKjt4D9/72srCRupif8UzE3zTrXkgIGgB9NGIHefVIDXvPeu0uxY0fgWgpW5935S4JeM2XKKAOSHIeZ3zvCR+YY2qnGGCrhvOyRzcT8PADTnfNkhIBPfL20dDhumnVuTMvYP/drlRoYgTj//DEBX2dm/Oc/XxqUxniWLq0IOheclzcAI0YYN9vIjG3EyvMjs0c2G9apDhgqYQCwZxd/QsBzRvcbCCMFfOq1fhlHe1KHmeiYehinSb1ls3DhhWODroBYtdKFxYtXG5TIOHbt8uKNfy8Iet2FF5UakOY4CuFZe7b9E0M71QHDJQwA7VCfA8EUJzSLEvCp75sxY5zlZeyX702zzrXUw7dQsNlsuOzyCUGve+XlT+Dx7DAgkXG89NLHIa0LDmUliWYQ3k3ibs8a16F+CKvE597uPl9VfU8T0RBRGcwg4M7wF3k329rerhhbmge7Pdeyc77h8Lv7nsXmzY0BrxlyRn88+OBNUBQhYxxNmfufhfjgg2VBr7v/gZ9h+PABBiQCwNioqvyLov5FwYfnFkBoOVRXQ/XdUOivIvo2q4BPxOtthae+BS53velWU/i3SsfCfG84VFWux1/+8nrQ684eU4g77phpQCL9+PLLb/HySx8Hva6sbAyuu/5CAxIdReV77NlFjxrXob4IlXBFY0WPRLI9BdCNRvZrBQGfipHFdLrCL954GfV2xauvfILPP/8m6HWTp4zErFmXGZBIe5Yvr8IzT88Pel2/fr3xyJ9/EfRgVO3gl9vYd1tJVskBgzrUHeEHA9Q0VI32KfQUgQI/ftYIKwr4VPwj5HpPy7E/64FfuoA1j1zSC1VVcd9vn0F9ffC5XyuKeNnSCjz7bGgrSe/5zU8xYsQwnRN1wMAqm812W0FGQUxtURQuYQBwNbmuBfOTIERf7j8AsSDgzvDXivB/Lr+cAQQsznNqoZ/U1O4AoEk1tlinrq4ef/xDaMtTzx5TiNtuu8oSc8SfflqOf78e2lTr9CsnY/r0yfoGOs5ugO6wZ9qDzwVZDFNIGACqG6v/qBDdr2cf8+atiDkBS8Tx1Vff48U5H4Z07ZAz+uOWWy5HTo6Y0yZC4ZVXPsEXIUyzAMCYsXbcfvsMnRMdR2X+U1FW0QOGdWggpvnVnNgj8R9g1vVMKC1Gd1LAEj/nnDMqpGVrALBxwzbc/7vnTLmOePPmRvzxD3NCFvDQoTm49dbM9hwYAAAL2klEQVTpOqc6AeY32rjtSeM6NBbTjIQBoHan8+x2H54AQ7dV39EcTikFLOmMF1/8CF8tDH2acsxYO3784/PQt6/Y04gB4P33lmLevNBroGdlpePe/73OsKOLmFEO4E5HliO03xAWxFQSBgDXDtdM9qmPE1HgA76iIBIRSwFLAvHcc+9h6ZLAdXZPhIgw7YqJuPTSH0VUfS1aVpY78d77S+EJ4eGin379euPue65BVla6jsmOw4wGBv+qKKvoP4Z0KAjTSRgAXNur7wbru344HBFLAUtCIdwRMQD07Nkd558/BueeN9qQwvBff12FLz7/BuvXh1e+JSenL+6868fIzDTwgS3xPfZ+sbMeuCtMKWFmtrmbXI+CEN253EEIRcRSwJJwmDt3IT54P/gOs84YN64IY0sdmh+XtHlzI1atcmHF19Voadkb9vsLCwfjv2+7Cr169dA0V0AYT7gy3XfPpJmWrBEcDqaUMABUe6pzKQGPEkjXbUeBRCwFLImEcFZNdEb37skoKh6KgoKBGDYsFwMHZYX1g9rcvAcbNnhQu3YrnM6NaGzcGXGWyZNHYtbNxq5zZvBcbsfdRTlF1ti3HyWmlTAAOBvXnA1K+AuBJunZT2cilgKWRENdXT1eevHDkDZ0BENRFGRl9UFGRhrS0k5DSo9uSEpKBBHQ3u7DwdbD8HoPoKVlL5qaduHAgcDFdkLluusvRFmZIXuojsHMS5hxT1F20beGdiwQU0sYANyNVRcz6C8g0vXgqhNFLAUs0QJVVfH6a5+FtMXZTOQNH4Brr70AQ4bo9my8C9hNzL8pzCoOXrAihjC9hAHA2eC8gRR+BKBMPfspL6+F2+WRApZoSlXlesyduzBo9TXRJCTYcNWMc3DJJeON75y5iZnudWQ7XjG+c7FYQsIA4G6qvlMFHiFQsugsEkkkLFiwCh+8vwx79+4XHeUHnHPuaEybNhG9ewc+xkknDhP43sLMoidEdC4ay0gYAFyN1Q+C6Peic0gkkeLz+fDppyvx+eersKvFKzoOJk8ZiQsuGCt2OzXzH+xZRQ+KCyAWS0m4juuS25oO/z8Q/Up0FokkWpYvq8TSZRVwuzYZ2m/fvqdjwoQRmDR5pKiR73GYH0vcl/zbvLy8w2KDiMNSEgYAt8fdh22+h0A0W3QWiUQLGht34ttva7BmdR3WrdNnVVZGRhpKzszD6FH5sDuEHWZzMszPHlQP/250/9GRr6GLASwnYaBjDbGSgD8BdIPoLBKJluzdewBr127GunX12LSxAfX129HaGv4gMSe3LwYNysLQoTkYPnwgcnPNVr2NX1HbcX+8rAUOhCUlDACu+tXDODHpjwRcLTqLRKInu3fvQ3PzHuzZvQ/79rXi4KHDaGtrBxiwJShITk5Cz57d0atXT/Tp0wv9+vWGopj3R5uBt0ihB+x97etEZzED5v2bCgFng7MQhD8S4UrRWSQSSSjw26zS7x3ZDrfoJGbBNPWEI8GR7XDbyPYHAMEPw5JIJEJh5nd94D9JAZ+MpUfCftY2rS1u57YHiegK0VkkEskPYeZ3E4gfzM8srhKdxWxYeiTsJz8zv8pGCb8H+G3RWSQSyanw26oUcJfExEjYj7PBWUgK7od8WCeRmAIG3oIKOQURgJiSMNCxagKJiffJ5WsSiWj4FSjKQ3IVRGBiTsLA0XXENtwnN3RIJIJgflb14SG5Djg4MSlhoGNnnc/m+60itzhLJMbC/NhB9fDD8b4TLlRiVsLAsVoT/8uEe2X1NYlEdw6D+ZHEfckPx3MtiHCJaQn7cTdV38nA/+hdj1giiVuYm4jw53gtRxkNcSFh4GhheOLf6H1Ch0QSf7CbVfpLPBZk14K4kTAAuBvdF6vku0fvM+skkniBmZco4L/G25FEWhJXEgaA6obqs0jB3Xqf4iyRxDoMnssqHo2nQzn1IO4kDADObc4BpOAuEO4UnUUisSSMJ1QfPyaXoEVPXEoYAJhZce9w/gpMdwEw+lhZicSSMKOBFH7c1bfm8Zk00yc6TywQtxL249rhmsk+9U4iKhWdRSIxM8woZ/Dfi7KK/iM6SywR9xIGgNqdzrPb2/iXILpGdBaJxJQwv8GgvzuyHN+IjhJrSAkfZa13bXrbgbY7FNDtIKSJziORmITdKvNTbdz25Mjskc2iw8QiUsKn4GpyXctQbyPQGNFZJBKRMLCKQE/ZM+2vi84Sy0gJd0J1Q/VZioJfAHSj6CwSiRj4ZcWW8M+CjILvRCeJdaSEu+C7bd+ldKfkX4DoVhBMcka4RKIzjI1gfrqNfE+XZJUcEB0nHpASDoJ7u/t8VVV/TgR5dJIktiG8q7bzs0X9ixaIjhJPSAmHQFVTVb8EKLcwcAuAHNF5JBItYcY2hfBsEnd7dmjW0B2i88QbUsJh4Nrhuoh96s1ENE10FolEC5j5PWLleXu2/RPRWeIVKeEwWbttbXq70j6LgFkgnCE6j0QSCczYAOCFI3xkjlx6JhYp4QhxN1RNUkn5GRGuF51FIgmTV0lRXizsW7hEdBCJlHBULFq0KKFfQfqNKtN/EWGc6DwSSUAYK4j4pYJ+jpeISNZ9MAlSwhrg9rjzYFOvV8E3EJF8cCcxGx5ivHLE1/5qSU5JnegwkpOREtYQZ6PzHCK+jhnXEZFNdB5JfMPMKhFeZabXHFmOr0TnkXSOlLAOOJucPyHgpwAuFp1FEp8w8DGAfzsyHW+KziIJjJSwTqzZtCYtOSXhGlbpGhDGi84jiRMYX5PCb3RP6vnG4NMH7xEdRxIcKWGdcW5zDqAEvppVXE1EZ4rOI4lNmHkNAW9xMr3l6O3YKjqPJHSkhA2iwlORl5hgm8nAjwnkEJ1HEiMwqkE8lxTb3MK+hfKhmwWREjaYtc1r89t97TPAuIoIxaLzSCxLJQPvsMpvF2UX1YgOI4kcKWFBuOpdwzjBdyWRMh3AWaLzSKwBM74F1Plks71j72tfJzqPJHqkhAVTubMyx9ZGVzDTNEWhc0TnkZgTZl6oKPRegi3pvbz0PI/oPBLtkBI2Cc7tzp5gXK4Al6nMlxFRN9GZJMI5xMAHAD6w2WwfFGQU7BMdSKI9UsImpGpb1VRFUS4m8MUgGio6j8RYmNUNgPIREX1kz7R/KTqPRF+khE1MjadyuE+xXQTChUSYKjqPRGcYXzDhU1+775MROSNqRceRGIOUsAVYxIsS+jX1KWOiMoDOBzBcdCaJNjCjlog/J7Yt2L52+4IpU6a0i84kMRYpYYvhavh+oKokTSXQeQScCyBddCZJeDC4BaAvGfyloipf2LPtW0RnkohDStjC1G6vHtHGdA6AKcQ8BUQ9RWeSdA4z7yOixQwsYuKvivoVVYrOJDEHUsIxQlVD1ShFUSaBeSIRJgDUW3SmuIexm8FLwbTUBnVJQXbx96IjScyHlHAM4mp02RXi8SownhnjSR7DZBzM60G0glV1BZFtuT3L7hIdSWJupIRjnIrGir4JlDCWwGMBjGHQGAJ6iM4VMzDvB+EbAKsYtLKd21eWZJXIE4slISMlHGdUN1QXADiLFIwiYCRAIwGkiM5lFRjcSsBqBlYTKd+xj793ZDvconNJrIuUcJxT6akcnmBTSkAYwaBiAooB5IrOZR54K0DVAFepjMqEhISKgowCuYZXohlSwpKT+G7Xd716tPWwM7cX+hiFRJQPcD6BBovOpjcMbAJ4LTPWkko1nMCulMQU1xm9z9grOpskdpESlgTF6XQmUZ+2YT7VNkyxKWcQMATgIQANYubBRJQsOmOoMPgQGFsI2MTgTSBlA4HWg7H+YObButE0uk10Rkl8ISUsiYqKxoq+CisDbIqtP6lqf5UoG4RMAJkA+hKQAeZ0Q9YwM+9nwk4CNbPKOxSFmlRGEzM3KIqyTbH5PG0+eIozi7frnkUiCREpYYnu1NXVJR/pdeT0BEVN87WrvUCJpwHoyeAeAFLA6AZCElhNAiMBgAJFAVQVgKKC1HZiamPiwyDlEIBW1ae22my2fWDs86m+vUqCsgd9sctBjiNCP6xEIpFIJBKJRCKRSELg/wMlvoKItxKmpAAAAABJRU5ErkJggg==;" parent="1" vertex="1">
                    <mxGeometry x="2010" y="80.39" width="132.76" height="125.61" as="geometry"/>
                </mxCell>
                <mxCell id="36" value="" style="shape=image;verticalLabelPosition=bottom;labelBackgroundColor=default;verticalAlign=top;aspect=fixed;imageAspect=0;image=data:image/png,iVBORw0KGgoAAAANSUhEUgAAAKAAAACACAYAAACMY2IbAAADXXpUWHRSYXcgcHJvZmlsZSB0eXBlIGV4aWYAAHjapVVZkuQoDP3nFHMEtADiOGyK6Bv08edB2pmVVRndEzEibLAQWp6EHNbvXx7+AVFkC5qK5ZpzBGnVyg0Liw/a646Hr/XeyvEmivW8D4X2Yr9t3LqI3/n3TO2bIr1OUH/fuPls3xTxY5JtAGvSS1G9DQnYHyznaiXq67tdB/1SmCBRjGMQ4SWKR7YV2U+ShlnwPtrxJqzlcES2pwcnWC3b9cujc5QFCFX6unEclwvxL3zZivcGQHrD6BX7+8YzCfLOt/iN8tFO4VilL8wPGfkvCQmfMnLC+gKw3it+5/f1PIHQdgZ8mvs6Eto0ozDzVVl3/uiSQ3mqnGQJVO4hWGMOeKUzMiAdgKBcw1HTHf4OoujEGHveJJRpUMGs1CgdngXsGz4nhp8hVJhZmWmx4sACbz19octsOYYXDFtckNEAbUrr/4/wNwH3sSGinfd9te0kmzfIO1hCWeHtHsZOiV3Q0hPgT/QoUaRln+FKdx4P9OGgL58OIWgAxbwxTcC3beuSAV/iAmBxHwTAHrXA6I8+XHQL0x9kw0t47lsxNgJX/Dv6KI49unpEsoGa6E1HzFRSUZVcW6nTV6iVxuxrX1o0hNHchHuJPKpYb6XXOL1N9Ylja4xWUHzcdNZCJadu1vucE1eEWq5T0ta9Sk2citcbsk4pD0vm4hZ5VWpqXtDRWjdXlOSyrLiBM+oMvJdtsmiF/7krJFpp9Piw+dgvVuApzIHbYl3ZO+VYWZe6K6YcPBUkT9h6qo7axV3zOkbFqfGzZwCkNOpkPeH10UacYhONMUwyaaNQkqHAgTMnWEeJaV656lq5OadOthGrayQElNA4uy1Qb8Sl83ALgOd4uOCsVen52SKfxC1P6boMcEFb0epL4xyp4+dVaNgOIKQukpu23OPKyEA17DpyPmoW5KzTREkwpbX0YwHxSDMPDdzmRhn50QFIZma4j/bvLZFBiLNLQSucqASHOu1rFQRYqfLiWtIcVrVImAnnvcjiDh/LrMRN8PftcnI7F0quHA1PTeKruTqvlpmBRkdt5dDnKL4BlQnIMGszhxWEJEg6sIkKCVL0qcw9oYZm9d0ld2b05xVB+eXVkIWTZSD76uD7+tTwL8KE4GdZ+qL3AAAABHNCSVQICAgIfAhkiAAAGplJREFUeJztnXuQJEd9579Z+c6sR1fP9rQWdhmQRjdny7LPjEOcLeOxDUY2BsMhtYSQwXaAJQ778NlxnA5BMDZ2wN1F6ADZgnDYdzyMBVgQirgQD9mScMiyZVlIoLWQWHEgLUhIIDHPnUc/qvL+mKremtHM7HRP7/bMbn0iOma6qzLrV1m/ytfvl/kDSkpKSkpKSkpKSkpKSkpK9gfGOecNU4B6vW6npqbUMGUo0mg0RKPRoMOW44ymXq9bY8yvMMZuk1L+0rDkCIJghFN+d+T7n/J9vzYsOYoIIW4yxnxQSnkegD3zYpwJsMOHDz8PwNuEEPcKIdqUUqe1vnRYAtVqtXO4R7/pG//varXaOcOSo4iU8kHOuSOEfN/3/b9mjE1NTEwEw5Zr3zI5OWmMMS+WUn4AwLEwDB0ARyl1AJzW+tXDks33/ZqU8uvVKPriXlFAIcT9nuc5AI4Q4oIgaHLO/8EY82ZrbX1ycpIPW8b9QiCEeK2U8guU0iUpZVfpkCkgIcQBeGMURfHY2FgFQCWO4whAFMdxFMdxVK1WQwDhxt/zT/5bGIbVKIpiADvuU9br9dHA2IettV/qRwFrtZqfywAgjKIojhDF09PTLD+nWq2GURTFubxr5yAu9vMmJiaCGMjv9QghxBFC1pWXEMIJIb6ltb5eCPEjjUZD9CrvGc/4+LiMouhcY8w7tNYPGmMcY2xdQUopu/8DcEqpJoClIAiOh2G46HnegpRywVo7L6Wc8zxvzlo7C2AWwGylUpkFMEsImeOczwkh5gDMSinnAcxaa39hp/LW6/VR7rFHRqrVvhSQMfYFSumc53mzjLEZycUcp2xGa31Rfk7g+3d4IIseyBynbNYDWfCNnTOcvzg/x1f6y0rIRcbYLOfc5TUgAMcY65ZbXo5BEMwaY24xxrwqewFKAEBK+fNa67ustQkKSoasOclqPEcpdZzzbsHmvxc/RaX1PM9l/aKNtee6h+R5njPGvGqn8tbr9VGr9CPVKOpLAQF8Nb8PAI4AjlPmKr4/lZ9glT7KPOpIdpwSz3kgLgiCn8nP8UAeJYV7z+8nL7diWRTvVQjxQ875Hw+zj8hOfsrp4/Dhw/fMzs5evbq6+nohxGWMsQuWl5dBKUWSJPA8D4QQJEkCACCEIE1Tp5RaTtPUNZtNp5Ry7XYbSZI4KSVarZZzzqHdboMxhk6ngzRNSZYXcc65TqcDz/PgnEOSJEu9yNxJUjAAfc57PO2cW0CmGC5JkaYpmkmymp+QwD0phDjUbDY7jDHXbrfheR5JCucIJZ9oN1ujiUtTxljc6XTAOUe73YZzDmmadu+dMQYhxCyAOwB8lHN+z9GjRxf7E3/3kGFdeDsajQa97bbboqWlpZdxzq+mlP7s6uqqStMUzjlQSpH/HwTBbywuLt4ahuGO8l5YWAAAhGEIa613/Phxl+khIYS4+fn5OUJIupO86vX66Pzc3F1SqceFEL/5zDPPPN3LfU5MTARPPfUUL8oBAOeff/7i/fff3waAOI6jZHaWuiAgRTkvueSS+ZtvvjkB1vqJycwMrYyNuWPHjv0DpfTH8pc0xxiDVqt1tNPp3BIEwUejKPruE088sdKLvGcrVmv9Ekrph5VS3ys2nVnTsuMmc9DU6/VRRrxv9NsHPBUYYx4UQnSb2yAI2oyxL3POf6Ner48Oe+J+39JoNIRSakxr/fue533V9/0Ua9Mwlw1Lpnq9Phpa/xuj1QN7ZhoGwL9irVye1lp/HMDFtVrNH7ZQZxQTExOBEOI1QRDcVa1WXzEsObKJ6G9V/PD2A+bAwWHJUeTAgQOf1Fr/jyiKzi2nWk4x9XrdDrNJOXjw4AHfmHsqQXDzOf45e8IUNzU1pZxze7JvXzJgnHMkjuOobOJKSkpKSnpnIH2FqakpdeTIETk7O+uq1SpmZmZIHMfd47OzswCA4m+bCpPNc+3kmmEYkoWFBXey/IrfT0ffKAzDddc4mYyDYuO9biSfP9zs991cd3Z2FnEcI01Tb35+Hs65uZPJUmQgD4Rz/hHn3JXOOZckictmTLvHwzDEwsIC8bz14wVCtrw8yY6R4pdNTuqesxOKMm08tOG8jd+L13uOkFule+7ln3N4XRbblMdWbJtgq/vYeNpWyTekcWmawlqLpaUlACCMMSRJAudcKoRgrVarFUXRRfPz89/e6Q0MxBSXpmmcpmnknOsKWDSfLSwsdE1Bg6TXB7a9fqzld7Jztrt+L2lPBScrj93KRynNlQ+U0u7z1FpjZWXNqJKmaU/uXgNRQEppOzf9rKysLFBK55xzJFNCRykluTJikzdus5pss1ova0a2lKP4tm4hZ89VTJruyCq3JdvVipvUoMDWNVLPDOAFKSYglFJQSkEIIa1Wixhj0uXl5bTVah3GiefX00UGpYAAAM/zkKbptWNjY58u9n029otKzgyOHTuGarWazszM3M85H2+320CP3bqBKODKygo453ltMXfs2LG54vF8EFJy5jEzMwMAnX6b94FYEcIwROYCBaVUaf45y5BSev327weigKurq91mOEmS4fbES047SZL03VEeiALmI96MUgHPMjb4Hvb0/AeigJyXC63OcvoeZA5EAfO5oUHmWXJ2MBBlEUIUa8GyCS7ZMYOqrUg2B1RS0hMDG4SUlPTDQBRw4wqskpKdUg4YSgZNTyPigSjgysoKNrpalZw97MbLZiBaczJH05IzGyll32kHZorbrdtSydnJQBSw1WrB98uFYWcrSZL0480NYIDTMMePHx9EViX7EEpp3/3AgSlgaQ8+e2k2m13n7mazefpHwa1WC6Ul5OyFc95deZBtILpjBqKAWuviirdyPuYsoV6vW8bYTwOo9FsDDsQlP0mSpDAKLqvCM5w4jqNWq/XKVqt1jRDi4pWVFQYAjDG0Wq3TZxabnp5mU1NTSgjxN8j27Ivj+K0AgvHxcYk9ugFmSe80Gg1Rq9XOU0q921r7iO/767ZEllI6Y8yfnvJ9cvINeaSUl3DOP+j7/h1BECzjxP7Dc1LKh8MwvFUp9R5jzIvLzXv2L9PT0+zAgQNTvu//dRiGC8X9p4UQLoqiVrVa/YIQ4jIA9pQJ4pwjWutDSql3MsYeppS2ijuyU0qf83/293gQBHdba68sd2Tff1QqlZdqre/SWnc3PcfaBpgOQCcMw+tGRkaeh1PZ9x8fH5dBELzJ9/1vUEqdlLK723oWDCURQqxwzpcALGut27mQ+Q7txpiEc347gIvR957eJaebRqMhjDEHfd//j5zzfzHGdFCoAcMwbCml7lRKXQGgMnABwjCsKqX+LAiCjfEnntRa32SMeQuAl8RxfNj3/Vq9Xn8hY2wqCIL/AuBvpZTH89geWbiEp6WUby1379x/1Ot1Sym9zPf9OxljLc/zujVipVJxvu8/qLV+e71eH8Ug+v8jIyPP833/bxhj3RrP9/3vCCHeFcfxCw4dOqS3SU6zvt9PCCH+gnO+iKx5Nsa0AFwHYLv0JXuUWq3mZwF9PiWlXCjGHgHgoij6ppTyDwG8AP22dnEcR77vfzLXcsaYM8bcbK29sNdMp6amlJTyl5VS9yGrQY0xzvO8t5e7tu9rVKVS+QkAN1prnwXQDSCU6ct3OecfstZeAGDnLV6j0aDW2vflGWbb/v9PACO7kTYIggnG2K2FAcospfTXdpNnyfBpNBo0iqIXMsbezTl/DBsiVDHGfiiE+LRSauokrWaX18Vx/IM8I875/xrUCDaKonMZY7cX8r7b9/0fGUTeJUPnMIA/1FovFccLyAYsAL7HGHvHtgG+6/W6DYLgFqwFAnSMsS9KKcc3OdXL+nimD0FfBuBoHlBFKfWOsinet1hr7S8qpf631vqYtbaF9UrntNaPU0o/KqX85Syi59Zwzq+y1h7PMvkhpfQ5kYhqtdp5WuvrPc/7f0KIhwBcg96icxOt9R/lAQiFEEcA/GQP6UuGyPj4uHz+859/vud57wTwQKVSaWN9BFMnhFgE8KUoit6SBfE5ubuUc45Ya/9PPsFMKf3IxkiKjLGfjqLovmIERs55hzF2bTGG7cmIouhczvm9BaHftOMSKBkKURTFSqkrrbWfZ4wdzwaSXeNDGIaJUuoRAP8dwIXo1TJirb3QWvvVbNTbpJT+h+LxWq12ThAEX0Shes3/SimfkVL+Yo/3dL0xJr+Bj/m+vyeCvZScYGpqSvm+P6WUutEY8+38eSEboFJKXRzHz/q+/ykhxGsAjPRSEa1DKfXGIAgWsWbh+CcAFxSP+75/rdbaeZ7nsmr3vQBuV0rlQt1Qr9d3rPW+718K4HtYU+QjAP5dX4KXnDLiOL48DMOHgiBYZ4qjlDrGmNNaf2J0dPTH0VsXbHMYY+/Kq1TO+Z8XO4y+79eUUl/GiUiVNwLgxpirPc9rZvM+3wJw0RbZPwcp5XnW2vsIIY5zvtBLtPKS08OhQ4d0EAQTQRC8V0r5KGNsnUXMWtuJougzjLGXYreGBc75B5BVrVkHs4u19sooitpZVPE5AJdkh16olLqnINAbdno955ynlPpiwcOinBPco0xPTzPf92thGP6utfYBa+26iPTGGKeUup1SehmA/qbsOOcfKdj33lo8JqV8m+/7c4yx5/TXKKUfzh0PKKU39OJ+JaW8BVnVLoS4tC/BS04r1Wo1VEpdGcfx3xtj2vlsBrIakXN+H9b050BPGSulPoITDobrFLDRaIg4jg8bY95SrVb/ffGY7/vXUEpXsWaCedBa++PF49tF48nnHLNPqYD7C19K+XIAn7XWLuUDUqzpTyqlfBjAdVrrQ9iJc0LeBGcDjf+2UymstRfGcfy13A4IoDt6zsw0vx1FUWNycnLdpPX09DRjjH0JWaeWUvrqnV6zZE+htdY/BeBGKeVT+fQMIcRRShNCyOOU0g8BuGBbg4MQ4rpCB/PDG+cAt8ETQnwGJxwVb8jNLcaYNwP4vjEmtdZ+PI7jw3miKIpeZK19AGtN8CLWLCQl+xffWvtyQsg3cEIX8hqxA+DhzQwbXTIryLOEEBeG4T0AfnSnVw7D8D9FUdTBmqfLHIA3SCmvMcZ0bcrGmHuLzXPmWzaTjaCPcM5La8g+ZHJykgM4Tyn1Hinlo1lr1p2usdY+K4S4iTH20uzcLfkxzvlXsKaxTRSa0pNhjDlYnKbRWif5nGHWSX0awGuKk5RhGF5fqHE/jl47rSVDpdFoCM75T1JK/8xa+4N8PphS6pRSzvO87xljbgBw4Y4ckLP4bn+ZezADuLGXEa3W+lKl1LcLSpcL9G0hxGXF9j+KohcB+Eo+BRMEwW/1WgAlw+HQoUN6ZGTkF4QQn/E8b7GgL05r7TjnjwJ4b/aMe9syQyl1FSFkhlLqCCHPAPjVnaZtNBo0DMNXWGVvE4zPGKW/aYy5wRdiXVPunCNxFP8Jp8wRwBmpj3DOSyvIHqder1ul1OVKqTuq1WrXASFfJySE+JrW+u0ADk5PT/e95twyxj6XZ66U+jyAc3sVNIqieGxsrLJZ1TsSRS8jwGMEcB6IM8Jc68odFfYk4+PjslarnSOl/B1K6VeMMd2WLTPJOkLInVrrRhRFg9koklL6WinlE7krPqX0egDb+3HtkAjRi3zt36mlcpR4rlqt/pPdYHMu2TtUq9XXGWPuC8Owa/8trg1WSv15EAQT2zqZ9gGVUv5xfqGsXX9fGIbV3WR6IDhwfmjDz3sgjgCOU7ZAexjolJx+Jicnjdb6UinlLZzz2XyymTGWL8l1IyMj36SU/qnW+iW9OKOcjArWRqbdrRcAfFqs9ed6ai4bjYaQUl5itX0gUzwXWN95wO+XntD7g0OHDukoil4UBMEfGGP+WWvdKs7zcc6d1rrNOb/L87zfAfD83fQDAQBa60NCiJtyw3PW9n/L9/13AjiEbVY6Oee8ScBYay+sBJW/0FItEsARwEkuOszz3n2oXJa5H/EmJiYCxtjPAPhQpVJ5LG8p87k/z/NSSumTlNJPAvjVXa0nOnjw4AEANxRXxGfeMt/RWn+Kc/5mAJPGmIMhwmoMHFZK/RzzvHdVK9W7fW0WCeCYR50H4rRUP5CefFujl2V6JXuSbFJ51Fr761LKW6WUC9bapNhH1Fo3hRAPaa3fnxkh+nJWlZzzqwA8VHTDYYw5znlCKT0OYIZ5dIYAc5KLlXyKJW9yJRepUupOBlzsUDa7Zxrj4+MyiqJzAUwbY55EwXnV87x84HIkiqJeveZPEMfxYcbYfyWE/CtjrLv6qbguAAU3/cxPrMk5/0el1FUDG6aX7EkyB+br4jieL64Z0lq3AHxOa31R3+76BQiAipTyFb7vf4AxdoeU8hHP81aRaT2l9PEwDP+vUmo6DMOfArBTp4aSfUij0RDW2tcLIR4oVj5SSsc5vxvAK3e6IL1XBACTDb1vwona8LcBmEFoe8nehzH2TmPMErLWTwjhfN9/VEr51t1O3e0YSulHccKx9IrTctGSPYHneQ/l3TCl1LNYW5Z5+CTJ1tIOUI5ubaeUKmM2nEVQSnmapvA8D5TSKxqNxnsAfPe0CiGE+ESh43nVab14yVAhhDySOa84AOf1knZgNSCltBs3WKmBmgVL9j4kSRI45xAEQU/Wj4EpYJIk3Wg5KHfHP6vIRr7wPA+Li4s9pR1oDbibuLEl+5dWqwVCCNI0RRD0NuM2kEA1G0mSpKwBzyI2LLvtqRYqTWIlu6bfUK1AqYAlA8A5B0r7szmUClgyCEg+A9IrpQKW7BrfX1s4mTXFpz9ecEY58DhLOX78OBjrbzxb1oAlu0ZKiU6n01fagc4DAmuTkWX09JKdMjAFXFlZ6U5Glqa4s4tmswnP60+VBqaAYRjCOQchBFZXVweVbcn+wKVp2lfCgSng0tISgDWzTFkDnl1IKQEgN8UOzxKS9wP7nRMq2Z/0W/sBg/WGcblTYrvd7m9IVLIvabfbrl9z3MCcEay1WFxcRJqmkFJG55xzTmVxcTGdmZkhcRxjdnbWVavbLw/Ybi/pvULmdLkpw5R/O7lyZmZmtj1+sudTzCOOYzI6OpoePXoUURSx+fn5HUq6noEVGKX0E0mSvJEQAsZYs91ur3LOXbvd7vqKFa5X9B3szqBv8hat+2Gbt2yzA26bY9ux2YN0wJZNTTf/PkaCO72/NSHWu7ttlNNt4w7nNkm/pRybfO/mn616RLvdJpRS4nle2mw2I8452u02giCYWFxcfHTbGykwSHcsnhdgp9ORhBDZ6XS6heqcW1cAGws7n8IB1h5k8WFv/L4lu3ydyEkyKBrdkyQBIaT7W5qmyO+XMbbtXGiejjHWncAtepTvljzfvNxyX81e/TW3Oj+XufhM8vttNps9vYUDU0DP8+YIIXmUTWCbt2pD7df9IqUkzjmsrq4iDEMsLS3BGEOazSbSNM3NPWRjHnlWGxrA7Up702PJWtd1y3RJkkAIgeXlZfi+D8YYlpaWCLCmQEopNJtNAIDWGlprtFottNttcM5BKXULCwswZi1YwNLSEg4cOIDV1VWysrLS/R19vkqEEFhr3czMDLTW8DwPhBDnnMPy8jI459vd38ZacrPvJP+eVbcu/4tsy5ZWq9XqSeZeTj4JKgzDfmIHd1lYWEAYhs/5f6+ynYyb3cvpuKfNrnGqr7uwsJD/mwDorzNYUlJSUlJSUlJSUtIb09PTbGxsrLLrbWlL9g9TU1Nqr1hPoih6rdb6cd/3rxmmHJOTk3yvlMlO2Jce0dl2cK+69957bx0ZGfmlYcsDAJ1OxxBCxgghQ90L8bHHHvur0dHR66MoOndH4bFKdgwF8Dwp5e8aY75ire1gbT+6PRFjOAzDK3zfb0VR9J+HKQch5OvGGGeM+X4Yhn8Vx/HPotwMvn+yACgvNsZ80Bjz3Twumed5+RbAOw4ldioJw/CKIAjaw1ZAa+3XUNjDW2vd1Fp/mXP+JpTBIHdO1sz+mpTy81EUHS/uOZwHxiaEpADeACAPC9ZdHT05OWniOI4mJiaCCSCI4zgaw1ilGJekXq/barUaVoFwAgiq1WqY7XPcM9bavhQwlxNrkaiCwifc8AkABBMTE0EWx7l7Xp5+YmIiEEI8iEz5UNi/WwiRaK2Paq3fB+DfoNcggmcDWUCb8xhj1wohvhpFUbcAN37y3foZYyuVSmVRKbUQm7hbGxppPmu1WRaML1DizQnGj2upFiXwivwcRtjnlJDLRqp5AswSQuYAzEgpf75X2a21l/fTBCul/tYYsyKEWOCcz2/4zBU/nufNMsZmAcwwxmaUUjMAZowxc5TSWUrpDNa/oN2aMC83Qojzff/ZIAg+Syl9ZQ9Byc8Kfk5r/fda6xQbCi6LTdLdgR+F3fjzj1Xq9XlGgTZ35yEiOGXOA3EeiKtWq93QYL4x9xDAUeI5SrqhBJwx5pW9Ci6EaBhjmtba3+slnTHm67minOxTbAU2S1N8WbfKM1fO7P9npZR/1EtI3kGzp+asGo3GP998881XG2Mu9zzvcinlBWmaermrk3Nu3frTTqcDxliLENKilBKP8CVgbUFUkuLpalztLC4udgghaRbDmCzli1cApAmeqsbVztzcXIdS2ml12gnnPF1eXl7uR/7MX66nNGmaPimEOC9N0/YGn8kcghMeLC5NU2itiXOOtNttwjmHc8511kiEEHGn09nSfY0QAq31DIDbW63Wx33f/8dnnnnmeG93eubjAagIIRqMsduMMcvFN7r4P+f8jWEYVsMwrBanHWq1mp/t0F7Nj4dhWM1DxjvnyMTERBCGYfXgwYMHgiAYAVAdGxuroA8vobwGzOLl9kKYyTkShmE1CIKRorzFT34v+d9c5uy3uFar+UKII8VyystKSumklA8DeD+Afzvo6JZnLNlg5CJK6Y3FUTBONNGvHq6EawghGtVqtSWE6FUBB839eTPLOXdSyhYh5E4AvwlgtAyd0T8CwAsA/B6Af7HWJljrF71uuGJ1eb3W2iml/mDIcjwghHBSyqcopR9jjF0MYGAhVEsAZCO3V2VRml4+bHmAtSDfxpjvGGOuHqYcWuuPAXh/FEXnls3sKSZrnvdEkzI5Ocmz/uOwzV8ae6RMSkpKSkpKSkpKSkpK9hz/H/5eZzAXrRFgAAAAAElFTkSuQmCC;" vertex="1" parent="1">
                    <mxGeometry x="320" y="310" width="337.5" height="270" as="geometry"/>
                </mxCell>
                <mxCell id="37" value="" style="shape=image;verticalLabelPosition=bottom;labelBackgroundColor=default;verticalAlign=top;aspect=fixed;imageAspect=0;image=data:image/png,iVBORw0KGgoAAAANSUhEUgAAAKgAAACACAYAAACftCLvAAACN3pUWHRSYXcgcHJvZmlsZSB0eXBlIGV4aWYAAHjapVRZstwgDPznFDkCWtiOAxiqcoMcPy0Gz9jzJnmpiiiDrJ2WbDd+/Zzuh1FK2WlIOZYYPUiLFq5gsn+Q8Q0Pb95U0Z9Evqx9kav5Kb4pnmK+y8+T6lsg3R7U7opTzvktED8OsQTgSXegciYSiD9kjiUnr6/3uh3nDhhgkTJ7J8JDFI9YFrEnSMUp2Fd07AReRJfcMFo4IWuy0ndFy5UFCBW6KlbhshG/yMUCmwIg3TB63f2ueDZB7vLs3yiu6ORWVroIP3TkXxriPnVkXesCsJ4c3+Vdn564mnVgHnnOsSy0asRgxj1ZZ/9o22E8VVazBCFtCXicDltYKwLSDgjSXhMz3VBvJ/KTGMtOI6FInRJOpUphybKDPuP1wJprCSVmVmYarHAYkI1nLbTTppV4IHH2AzbqEE1p/P9y3xnM2Q0isr5HXu1HXWxtscsSxgr7nK5bS9KGll5d+EDWSzRleQzyT/s1uI85+uKCLByAr+FJnADjDqB/SuauL6cx/b2ybXvYH6rbRa0qgL1u6WV6P+QxkehbKanqAW5Sa4MopR4Vk9JgHI+ply+F+4zZOz5ajfUUtjjH/rGEA9cwDaJwirmJjJGpSNPQynwrObqWewkl2pFG5sQIfyRuZQgVH0qSwb7hyyWuRwtv7jXRMeGLipZTglOsxzhQDcXUvOJONeroK3GQnuLluz//ipsCqmTXJ2f/LckEuMX9BrTNV8wypIFXAAAABHNCSVQICAgIfAhkiAAADCRJREFUeJztnVuIJFcZx//nXpfuGXsSsqywroSBMfHFsBBRCCMh9+CLIN4iKiokqwHDRo1RMsSgKJgoPogk+BAQjA8RUYRIooiR+LAvQROQmGgWNGRNnMnuujPT3VXn+NB1aqt79jKXM93VXd8Piq2trjrzVZ9/f3XOd75TByAIgiAIgiAIYtywSRtAEBdECHFcKfU5ACZkuXNzc18AYJMkuTVkuU2DT9qASSOEOGKtfYwx9qpS6nudTucdIcrtdrsMA+/c+O+Y2BuWc+4AOMaYA5AB+A2AG/ZSqDHmKACXJMltAWxsLFP563bOBWs3RlEEay0453DOAYBgjN3GOX/aGPMi5/weAK2dlquUAlB6UmKXTKNALWPMMsac1tpFUeQAlFscxxaAlVJaIYStfgbACSFKbymEsJubm0xrXYpUSgnnHKy16Ha7V2utHwHwahRFP26320s7NXZubi7cnRP1h3NuGWNOSrlFeP5RHcdxeZwx5jjnjjHmlFJbrvGfV48nSeIADIm/uLavtf7KduxstVpHi3JvD/wVEDXHovCiGLQfrVKq9Jqcc+vP8fvVY/66wrvaot1ZilRrXf7ffxZF0SqAn6Rp+u7tGmmMOSqEcEIIaoM2kJDtOovCQ1Y9bOGh/845v7fT6czvtNBKJ4k8KLF7OOdDj/g4jq2U8ikAt++lM9ZqtY4WZZJA94CctAF1wFoLAG8C+Lm19vtZlr0CAIzt3lH3+30nhIAxxq2vr4cxtIFMYy8+KNba51ut1tHl5eVDAL7Y7XZfCVGuUorleQ7Qd0zUkVardRcG7dtbJm0LQRAEQRAEUUsYsLsx/ktdEzJvYFoIec+hw0wWAGOMQUqJPM/hnPNJGNuCMQbnHLTW6PV6gc0bRgiBPM/BGCu3nVK9hnMOay2klMiyrDw2S/j7ZYzBWlvWFwYxXwBgRb5DkBsP/eu2UkrmnEMRYhn8kaLyLyVU/7lSCv1+v6xwf8xX+m7xX+p+44XvMcag2+1e8rq9xF3Hga8fX5f+PpVSo86ongJljFnv3qMocr1eD1pr1uv13HaEwTmH1hqbm5vVMqGUupA33ZH9XgDOuXK/4u3cTjz9hcrXWpdiNMbAObcfT4Kd1tvebqwgiqKybrzTGa0vX9+oo0CFEDbPcwYA7Xb78jNnzuQA+Pz8vDt16tR2vqTynE6ng7W1tfKDhYUFt7q6Onr+pezf8jcXFhYAAKurq1hYWIAvs9jfyfex5dzDhw/jxIkT5b+jxy7E6dOnHYCh+90BQcRXcLH7ZwCq9+ZnDKDT6eRra2sQQqzlec6MMa7b7daybWONMQ6DtijRPHz+bbD6D67yfr9f+7YUsX9IWeP0Dp+uVuRfEg2jyLX1mWG1JLiLJ6aK4AKtZUOWIDwkUKLWkECJ/YAe8UQzIIEStYYEStQaEihRa0igRK0hgRK1JrRAaRCeCAp5UKLWhBZobZMEiOmEPChRa0igRK3ZL4FSZ4kIQlCBCiFCFkdMF9cAYFLK+k61ZoxZKaV/MzEx46ysrEgAd2itjzPGXDEfzQHYMruxLlgAzhhDGfWzzeXGmG8DeM0vSuE3zrlLkuTecRhRvvtdaz303vdCgDaKIv9ueOfno/iFB/z73VFZWaN6E/6cynkk6prTbrffL6X8ZRzHGSr1KoRwUspsfn7+KQA3jsseWxWWUmrLyhqoiE1KWS5AIKUsjffXSCmHjvsycW7hAhJojYmi6OMA3hxdFUVr7Rhj/zt48ODN47ap9KCjmzGmXDnjfOf4FTQqaxUNbVJKK6XcsvLGuG+Q2BlLS0ttAPcDOIHKYhOFYLMoin4bRdF1EzWSIFZWVqRS6jNJkryAylPSPx3b7fZxAB8ChRuJSSOEuI0x9kdU+hSVfsVLAO5G4JWkCWLHJElyDWPsSa11uTgv59x71deEEN8E0JmwmQSBKwH8SEp52j/yK2+ceUsI8ej8/Pw7J2si0WiWlpbaSZLcP7o2Ks6FE3ta669N0kaiYTjnmDHmJmPMk0KIMyjapCOhxJPtdvtRDIZF95WhsFE1kI/zhJ6KwD7FOmeQTqdzKE3TBwH8sxofjaLI9+4zKeXTAD6CMa5s6Ic0h9Zf55wPhRxGA/tF7JOYfqRS6lNxHD/rB2eqI4dFvb8E4OsADk7CwC1LXiulyiHQOI7Lz6Mo8sF68qBTjpTyfWmaPh5F0X8x0rbUWrs0TdfjOH4CwAcmaeeuaeKSLLMC5/w+zvkGRvIrhBAujuM8iqIHjhw5kkzYTKLJRFF0WAjxQwCrvvPjH+1xHGdpmj6utX4XaASJmCQLCwtzAL6RJMm/MNzu9Pu/AvDeSdpIEACgAHxea/0CCnHGcVwOd8Zx/BxoTJ6oA0KI240xz2Kk81S0Vf9mjLkLA0EHwwohyp55iK2SVleNj1Y3YsqJ4/haY8wvpJR9FOPxlQT115RSDyHEmHwRsyyDrtUg7F43316pJhUUwX5iRmi1WlcZY/6NyiwLnBtRegPA9Xv6A97bVWOaITchhBVCWMZYGUvdk8FELbjsssveLoT4gTHmFEZmVCilzgLwPX2CGCtXa62fEELk2Dot6A0A3wVwxSQNJBqIMeZ6KeXvvKcciY++KqX8MoB0slYSjUMp9ck0TZ/HuXZl+ThnjP0lTdM7nHM1fYMDMZMsLy9HURTdi2LSnBcmio5QHMd/SNN0bNOOCaKEc34MwEmfpVade8Q57xlj7p60jVvYafIHJYtMLysrKzJN048CeEYp1UVl5Kiyf8IY82Cn0zk0UWNRmd+O84eRHIp8UQzHwSiUNAMUoaSHGGMvo6hr700rdf17pdQdy8vL0bjtYz6IX3HxQ6+zqc5FqbxQigQ6g0gprwPwUwxeGDaUTV8ksb8B4DGl1HvGadd5vefIeuFD5/ig/DiNJMZKnCTJZwH8aUQHVef1VwBfBfC2cRvn25b+fU4kxAZjjFkUQjwcRdF/MDIdpOhcvQ7g2rEbVgxZkkAJKaVc4Zyv+1CUUsrnXPwsSZKJzFNCxbWTQBuKUuoTQogT1Rhp8VT9MybhNUewRZyMBNpMHkGlzVns/wPAxydrVkExH95RZ6iZ+Nm7RZvzLSnlA4uLi7V6cZjFoL1BAm0mthCnPXDgQP0ylzjn/s1mJNAGMg31T52kZhO8/ikdiggKY2HTLWilOaLWkAclag0JlKg1JFCi1pBAiVpDAiVqzX4J1O1TuUTDCCpQxlh91wonppKganLOwVoLY2qVH0AQJdXsaaJ52ND1H9SDCiHgnIOUY1tthKgn9RRonufgnMM5cqBEGIL3aBhjyPM8dLFEQwneiy/ESS6UCELoxqLD4MUOLMuyIZFyzmFt/dNElVLo9/ulvUII5Hletq+ttWCMwTlX/uvP8ddwzsE5R5Zl5TF/7owT/AaDh5mMMciyDMDAo/r8QF+ho8cBlGGpagxVaz1UthAipKkXpN/vAwCstZBSIs9zKKWQ53lpt+8IesH5z/wP0Fpbfgf+WAPECQCsqFcW6j1cQfM2Oee26nUAQEqJLMvKnr3f9xU46n3SNMXZs2fLMqMowubmZkgzLwbTWqPX63l7zqcqBgx+QFmWwVpbet1LJeu6S6t0v/No9/VX4h1M8aOkERuiftAbDAmCIAiCIAiiARhj7sRgrvdNk7alaVAoYBsUsVEGIGQwVhpjjgI4HrDMmYPSjraHjx+GGAo7BOBYHMcf29jYuAI0LHxRSKDbw8f2dv3EMcbcnOf5PVmW3aiU4hsbGwCAOI7h9wliV3DO78TA092yk+sOHDiQAjgG4GWMvDczSRKf3F3/BIUJQh50H9BaX5Xn+bGTJ09+GMAcMMg36Ha7AAZDguvr636fWWu9WPdEJXFlZvoWJNDAcM7v6/V63wLAlVJlzkG3292SdyCEqGY/MX/ubinKn6k27cz80uqCtfY7AK5ut9uP9vv9U845OOegtR7KevIZUkUKnyvSEy+0bQc3a+Iktslu26CLi4tGa/0lxtiLGFmOBefapLaSYLGXRAtK0mgwd2KwWsWtu7m4EOANUspfA+hhWKTUSboI9IjfBsYYppSCMWZXXqrwnM9kWfZBAFcqpR4G8LoQwk3DLAOi/tyFQThoVx70fBSrX3yaMfZcqDIJgiAIgiAIgiAIgiAIgiAIgiCC8n+9amkfw8hSHwAAAABJRU5ErkJggg==;" vertex="1" parent="1">
                    <mxGeometry x="1280" y="310" width="347.81" height="265" as="geometry"/>
                </mxCell>
                <mxCell id="38" value="&lt;span style=&quot;font-style: normal;&quot;&gt;Arus listrik yang mengalir satu arah&lt;/span&gt;&lt;div&gt;&lt;span style=&quot;font-style: normal;&quot;&gt;dari kutub positif menuju kutub negatif&amp;nbsp;&lt;/span&gt;&lt;/div&gt;" style="text;html=1;align=center;verticalAlign=middle;resizable=0;points=[];autosize=1;strokeColor=none;fillColor=none;fontSize=28;fontStyle=3;fontFamily=Courier New;fontColor=#6d8764;" vertex="1" parent="1">
                    <mxGeometry x="1300" y="630" width="700" height="80" as="geometry"/>
                </mxCell>
                <mxCell id="39" value="&lt;span style=&quot;font-style: normal;&quot;&gt;Arus listrik yang arah alirannya selalu&lt;/span&gt;&lt;div&gt;&lt;span style=&quot;font-style: normal;&quot;&gt;berubah-ubah&amp;nbsp;&lt;/span&gt;&lt;span style=&quot;font-style: normal; background-color: transparent;&quot;&gt;secara periodik sehingga&lt;/span&gt;&lt;/div&gt;&lt;div&gt;&lt;span style=&quot;font-style: normal; background-color: transparent;&quot;&gt;membentuk gelombang sinus.&lt;/span&gt;&lt;/div&gt;" style="text;html=1;align=center;verticalAlign=middle;resizable=0;points=[];autosize=1;strokeColor=none;fillColor=none;fontSize=28;fontStyle=3;fontFamily=Courier New;fontColor=#6d8764;" vertex="1" parent="1">
                    <mxGeometry x="330" y="630" width="680" height="110" as="geometry"/>
                </mxCell>
                <mxCell id="40" value="Listrik PLN (220V / 110V)" style="rounded=1;whiteSpace=wrap;html=1;fontSize=26;fontColor=#ffffff;fillColor=#a0522d;strokeColor=none;fontStyle=1" vertex="1" parent="1">
                    <mxGeometry x="340" y="780" width="360" height="80" as="geometry"/>
                </mxCell>
                <mxCell id="42" value="Baterai" style="rounded=1;whiteSpace=wrap;html=1;fontSize=26;fontColor=#ffffff;fillColor=#76608a;strokeColor=none;fontStyle=1" vertex="1" parent="1">
                    <mxGeometry x="1310" y="770" width="160" height="80" as="geometry"/>
                </mxCell>
                <mxCell id="43" value="Power Bank" style="rounded=1;whiteSpace=wrap;html=1;fontSize=26;fontColor=#ffffff;fillColor=#76608a;strokeColor=none;fontStyle=1" vertex="1" parent="1">
                    <mxGeometry x="1500" y="770" width="200" height="80" as="geometry"/>
                </mxCell>
                <mxCell id="44" value="Panel Surya" style="rounded=1;whiteSpace=wrap;html=1;fontSize=26;fontColor=#ffffff;fillColor=#76608a;strokeColor=none;fontStyle=1" vertex="1" parent="1">
                    <mxGeometry x="1740" y="770" width="200" height="80" as="geometry"/>
                </mxCell>
                <mxCell id="46" value="Adaptor Charger HP" style="rounded=1;whiteSpace=wrap;html=1;fontSize=26;fontColor=#ffffff;fillColor=#76608a;strokeColor=none;fontStyle=1" vertex="1" parent="1">
                    <mxGeometry x="1472" y="900" width="330" height="80" as="geometry"/>
                </mxCell>
                <mxCell id="47" value="Generator listrik" style="rounded=1;whiteSpace=wrap;html=1;fontSize=26;fontColor=#ffffff;fillColor=#a0522d;strokeColor=none;fontStyle=1" vertex="1" parent="1">
                    <mxGeometry x="740" y="780" width="250" height="80" as="geometry"/>
                </mxCell>
                <mxCell id="48" value="Alternator pada kendaraan" style="rounded=1;whiteSpace=wrap;html=1;fontSize=26;fontColor=#ffffff;fillColor=#a0522d;strokeColor=none;fontStyle=1" vertex="1" parent="1">
                    <mxGeometry x="485" y="900" width="370" height="80" as="geometry"/>
                </mxCell>
            </root>
        </mxGraphModel>
    </diagram>
</mxfile>